<svg xmlns="http://www.w3.org/2000/svg" xmlns:xlink="http://www.w3.org/1999/xlink" width="600" height="400" viewBox="0 0 2400 1600">
<defs>
  <clipPath id="clip550">
    <rect x="0" y="0" width="2400" height="1600"></rect>
  </clipPath>
</defs>
<path clip-path="url(#clip550)" d="M0 1600 L2400 1600 L2400 0 L0 0  Z" fill="#ffffff" fill-rule="evenodd" fill-opacity="1"></path>
<defs>
  <clipPath id="clip551">
    <rect x="480" y="0" width="1681" height="1600"></rect>
  </clipPath>
</defs>
<path clip-path="url(#clip550)" d="M232.389 1423.18 L2352.76 1423.18 L2352.76 123.472 L232.389 123.472  Z" fill="#ffffff" fill-rule="evenodd" fill-opacity="1"></path>
<defs>
  <clipPath id="clip552">
    <rect x="232" y="123" width="2121" height="1301"></rect>
  </clipPath>
</defs>
<polyline clip-path="url(#clip552)" style="stroke:#000000; stroke-linecap:round; stroke-linejoin:round; stroke-width:2; stroke-opacity:0.1; fill:none" points="288.391,1423.18 288.391,123.472 "></polyline>
<polyline clip-path="url(#clip552)" style="stroke:#000000; stroke-linecap:round; stroke-linejoin:round; stroke-width:2; stroke-opacity:0.1; fill:none" points="689.262,1423.18 689.262,123.472 "></polyline>
<polyline clip-path="url(#clip552)" style="stroke:#000000; stroke-linecap:round; stroke-linejoin:round; stroke-width:2; stroke-opacity:0.1; fill:none" points="1090.13,1423.18 1090.13,123.472 "></polyline>
<polyline clip-path="url(#clip552)" style="stroke:#000000; stroke-linecap:round; stroke-linejoin:round; stroke-width:2; stroke-opacity:0.1; fill:none" points="1491,1423.18 1491,123.472 "></polyline>
<polyline clip-path="url(#clip552)" style="stroke:#000000; stroke-linecap:round; stroke-linejoin:round; stroke-width:2; stroke-opacity:0.1; fill:none" points="1891.87,1423.18 1891.87,123.472 "></polyline>
<polyline clip-path="url(#clip552)" style="stroke:#000000; stroke-linecap:round; stroke-linejoin:round; stroke-width:2; stroke-opacity:0.1; fill:none" points="2292.75,1423.18 2292.75,123.472 "></polyline>
<polyline clip-path="url(#clip552)" style="stroke:#000000; stroke-linecap:round; stroke-linejoin:round; stroke-width:2; stroke-opacity:0.1; fill:none" points="232.389,1254.33 2352.76,1254.33 "></polyline>
<polyline clip-path="url(#clip552)" style="stroke:#000000; stroke-linecap:round; stroke-linejoin:round; stroke-width:2; stroke-opacity:0.1; fill:none" points="232.389,1024.85 2352.76,1024.85 "></polyline>
<polyline clip-path="url(#clip552)" style="stroke:#000000; stroke-linecap:round; stroke-linejoin:round; stroke-width:2; stroke-opacity:0.1; fill:none" points="232.389,795.37 2352.76,795.37 "></polyline>
<polyline clip-path="url(#clip552)" style="stroke:#000000; stroke-linecap:round; stroke-linejoin:round; stroke-width:2; stroke-opacity:0.1; fill:none" points="232.389,565.888 2352.76,565.888 "></polyline>
<polyline clip-path="url(#clip552)" style="stroke:#000000; stroke-linecap:round; stroke-linejoin:round; stroke-width:2; stroke-opacity:0.1; fill:none" points="232.389,336.406 2352.76,336.406 "></polyline>
<polyline clip-path="url(#clip550)" style="stroke:#000000; stroke-linecap:round; stroke-linejoin:round; stroke-width:4; stroke-opacity:1; fill:none" points="232.389,1423.18 2352.76,1423.18 "></polyline>
<polyline clip-path="url(#clip550)" style="stroke:#000000; stroke-linecap:round; stroke-linejoin:round; stroke-width:4; stroke-opacity:1; fill:none" points="288.391,1423.18 288.391,1404.28 "></polyline>
<polyline clip-path="url(#clip550)" style="stroke:#000000; stroke-linecap:round; stroke-linejoin:round; stroke-width:4; stroke-opacity:1; fill:none" points="689.262,1423.18 689.262,1404.28 "></polyline>
<polyline clip-path="url(#clip550)" style="stroke:#000000; stroke-linecap:round; stroke-linejoin:round; stroke-width:4; stroke-opacity:1; fill:none" points="1090.13,1423.18 1090.13,1404.28 "></polyline>
<polyline clip-path="url(#clip550)" style="stroke:#000000; stroke-linecap:round; stroke-linejoin:round; stroke-width:4; stroke-opacity:1; fill:none" points="1491,1423.18 1491,1404.28 "></polyline>
<polyline clip-path="url(#clip550)" style="stroke:#000000; stroke-linecap:round; stroke-linejoin:round; stroke-width:4; stroke-opacity:1; fill:none" points="1891.87,1423.18 1891.87,1404.28 "></polyline>
<polyline clip-path="url(#clip550)" style="stroke:#000000; stroke-linecap:round; stroke-linejoin:round; stroke-width:4; stroke-opacity:1; fill:none" points="2292.75,1423.18 2292.75,1404.28 "></polyline>
<path clip-path="url(#clip550)" d="M288.391 1454.1 Q284.78 1454.1 282.951 1457.66 Q281.146 1461.2 281.146 1468.33 Q281.146 1475.44 282.951 1479.01 Q284.78 1482.55 288.391 1482.55 Q292.025 1482.55 293.831 1479.01 Q295.659 1475.44 295.659 1468.33 Q295.659 1461.2 293.831 1457.66 Q292.025 1454.1 288.391 1454.1 M288.391 1450.39 Q294.201 1450.39 297.257 1455 Q300.335 1459.58 300.335 1468.33 Q300.335 1477.06 297.257 1481.67 Q294.201 1486.25 288.391 1486.25 Q282.581 1486.25 279.502 1481.67 Q276.447 1477.06 276.447 1468.33 Q276.447 1459.58 279.502 1455 Q282.581 1450.39 288.391 1450.39 Z" fill="#000000" fill-rule="nonzero" fill-opacity="1"></path><path clip-path="url(#clip550)" d="M648.869 1481.64 L656.507 1481.64 L656.507 1455.28 L648.197 1456.95 L648.197 1452.69 L656.461 1451.02 L661.137 1451.02 L661.137 1481.64 L668.776 1481.64 L668.776 1485.58 L648.869 1485.58 L648.869 1481.64 Z" fill="#000000" fill-rule="nonzero" fill-opacity="1"></path><path clip-path="url(#clip550)" d="M688.22 1454.1 Q684.609 1454.1 682.78 1457.66 Q680.975 1461.2 680.975 1468.33 Q680.975 1475.44 682.78 1479.01 Q684.609 1482.55 688.22 1482.55 Q691.854 1482.55 693.66 1479.01 Q695.489 1475.44 695.489 1468.33 Q695.489 1461.2 693.66 1457.66 Q691.854 1454.1 688.22 1454.1 M688.22 1450.39 Q694.03 1450.39 697.086 1455 Q700.165 1459.58 700.165 1468.33 Q700.165 1477.06 697.086 1481.67 Q694.03 1486.25 688.22 1486.25 Q682.41 1486.25 679.331 1481.67 Q676.276 1477.06 676.276 1468.33 Q676.276 1459.58 679.331 1455 Q682.41 1450.39 688.22 1450.39 Z" fill="#000000" fill-rule="nonzero" fill-opacity="1"></path><path clip-path="url(#clip550)" d="M718.382 1454.1 Q714.771 1454.1 712.942 1457.66 Q711.137 1461.2 711.137 1468.33 Q711.137 1475.44 712.942 1479.01 Q714.771 1482.55 718.382 1482.55 Q722.016 1482.55 723.822 1479.01 Q725.651 1475.44 725.651 1468.33 Q725.651 1461.2 723.822 1457.66 Q722.016 1454.1 718.382 1454.1 M718.382 1450.39 Q724.192 1450.39 727.248 1455 Q730.327 1459.58 730.327 1468.33 Q730.327 1477.06 727.248 1481.67 Q724.192 1486.25 718.382 1486.25 Q712.572 1486.25 709.493 1481.67 Q706.438 1477.06 706.438 1468.33 Q706.438 1459.58 709.493 1455 Q712.572 1450.39 718.382 1450.39 Z" fill="#000000" fill-rule="nonzero" fill-opacity="1"></path><path clip-path="url(#clip550)" d="M1053.83 1481.64 L1070.14 1481.64 L1070.14 1485.58 L1048.2 1485.58 L1048.2 1481.64 Q1050.86 1478.89 1055.45 1474.26 Q1060.05 1469.61 1061.23 1468.27 Q1063.48 1465.74 1064.36 1464.01 Q1065.26 1462.25 1065.26 1460.56 Q1065.26 1457.8 1063.32 1456.07 Q1061.39 1454.33 1058.29 1454.33 Q1056.09 1454.33 1053.64 1455.09 Q1051.21 1455.86 1048.43 1457.41 L1048.43 1452.69 Q1051.26 1451.55 1053.71 1450.97 Q1056.16 1450.39 1058.2 1450.39 Q1063.57 1450.39 1066.76 1453.08 Q1069.96 1455.77 1069.96 1460.26 Q1069.96 1462.39 1069.15 1464.31 Q1068.36 1466.2 1066.26 1468.8 Q1065.68 1469.47 1062.58 1472.69 Q1059.47 1475.88 1053.83 1481.64 Z" fill="#000000" fill-rule="nonzero" fill-opacity="1"></path><path clip-path="url(#clip550)" d="M1089.96 1454.1 Q1086.35 1454.1 1084.52 1457.66 Q1082.71 1461.2 1082.71 1468.33 Q1082.71 1475.44 1084.52 1479.01 Q1086.35 1482.55 1089.96 1482.55 Q1093.59 1482.55 1095.4 1479.01 Q1097.23 1475.44 1097.23 1468.33 Q1097.23 1461.2 1095.4 1457.66 Q1093.59 1454.1 1089.96 1454.1 M1089.96 1450.39 Q1095.77 1450.39 1098.82 1455 Q1101.9 1459.58 1101.9 1468.33 Q1101.9 1477.06 1098.82 1481.67 Q1095.77 1486.25 1089.96 1486.25 Q1084.15 1486.25 1081.07 1481.67 Q1078.01 1477.06 1078.01 1468.33 Q1078.01 1459.58 1081.07 1455 Q1084.15 1450.39 1089.96 1450.39 Z" fill="#000000" fill-rule="nonzero" fill-opacity="1"></path><path clip-path="url(#clip550)" d="M1120.12 1454.1 Q1116.51 1454.1 1114.68 1457.66 Q1112.88 1461.2 1112.88 1468.33 Q1112.88 1475.44 1114.68 1479.01 Q1116.51 1482.55 1120.12 1482.55 Q1123.76 1482.55 1125.56 1479.01 Q1127.39 1475.44 1127.39 1468.33 Q1127.39 1461.2 1125.56 1457.66 Q1123.76 1454.1 1120.12 1454.1 M1120.12 1450.39 Q1125.93 1450.39 1128.99 1455 Q1132.07 1459.58 1132.07 1468.33 Q1132.07 1477.06 1128.99 1481.67 Q1125.93 1486.25 1120.12 1486.25 Q1114.31 1486.25 1111.23 1481.67 Q1108.18 1477.06 1108.18 1468.33 Q1108.18 1459.58 1111.23 1455 Q1114.31 1450.39 1120.12 1450.39 Z" fill="#000000" fill-rule="nonzero" fill-opacity="1"></path><path clip-path="url(#clip550)" d="M1464.77 1466.95 Q1468.12 1467.66 1470 1469.93 Q1471.9 1472.2 1471.9 1475.53 Q1471.9 1480.65 1468.38 1483.45 Q1464.86 1486.25 1458.38 1486.25 Q1456.2 1486.25 1453.89 1485.81 Q1451.59 1485.39 1449.14 1484.54 L1449.14 1480.02 Q1451.08 1481.16 1453.4 1481.74 Q1455.71 1482.32 1458.24 1482.32 Q1462.64 1482.32 1464.93 1480.58 Q1467.24 1478.84 1467.24 1475.53 Q1467.24 1472.48 1465.09 1470.77 Q1462.96 1469.03 1459.14 1469.03 L1455.11 1469.03 L1455.11 1465.19 L1459.33 1465.19 Q1462.77 1465.19 1464.6 1463.82 Q1466.43 1462.43 1466.43 1459.84 Q1466.43 1457.18 1464.53 1455.77 Q1462.66 1454.33 1459.14 1454.33 Q1457.22 1454.33 1455.02 1454.75 Q1452.82 1455.16 1450.18 1456.04 L1450.18 1451.88 Q1452.84 1451.14 1455.16 1450.77 Q1457.5 1450.39 1459.56 1450.39 Q1464.88 1450.39 1467.98 1452.83 Q1471.08 1455.23 1471.08 1459.35 Q1471.08 1462.22 1469.44 1464.21 Q1467.8 1466.18 1464.77 1466.95 Z" fill="#000000" fill-rule="nonzero" fill-opacity="1"></path><path clip-path="url(#clip550)" d="M1490.76 1454.1 Q1487.15 1454.1 1485.32 1457.66 Q1483.52 1461.2 1483.52 1468.33 Q1483.52 1475.44 1485.32 1479.01 Q1487.15 1482.55 1490.76 1482.55 Q1494.39 1482.55 1496.2 1479.01 Q1498.03 1475.44 1498.03 1468.33 Q1498.03 1461.2 1496.2 1457.66 Q1494.39 1454.1 1490.76 1454.1 M1490.76 1450.39 Q1496.57 1450.39 1499.63 1455 Q1502.71 1459.58 1502.71 1468.33 Q1502.71 1477.06 1499.63 1481.67 Q1496.57 1486.25 1490.76 1486.25 Q1484.95 1486.25 1481.87 1481.67 Q1478.82 1477.06 1478.82 1468.33 Q1478.82 1459.58 1481.87 1455 Q1484.95 1450.39 1490.76 1450.39 Z" fill="#000000" fill-rule="nonzero" fill-opacity="1"></path><path clip-path="url(#clip550)" d="M1520.92 1454.1 Q1517.31 1454.1 1515.48 1457.66 Q1513.68 1461.2 1513.68 1468.33 Q1513.68 1475.44 1515.48 1479.01 Q1517.31 1482.55 1520.92 1482.55 Q1524.56 1482.55 1526.36 1479.01 Q1528.19 1475.44 1528.19 1468.33 Q1528.19 1461.2 1526.36 1457.66 Q1524.56 1454.1 1520.92 1454.1 M1520.92 1450.39 Q1526.73 1450.39 1529.79 1455 Q1532.87 1459.58 1532.87 1468.33 Q1532.87 1477.06 1529.79 1481.67 Q1526.73 1486.25 1520.92 1486.25 Q1515.11 1486.25 1512.03 1481.67 Q1508.98 1477.06 1508.98 1468.33 Q1508.98 1459.58 1512.03 1455 Q1515.11 1450.39 1520.92 1450.39 Z" fill="#000000" fill-rule="nonzero" fill-opacity="1"></path><path clip-path="url(#clip550)" d="M1864.97 1455.09 L1853.16 1473.54 L1864.97 1473.54 L1864.97 1455.09 M1863.74 1451.02 L1869.62 1451.02 L1869.62 1473.54 L1874.55 1473.54 L1874.55 1477.43 L1869.62 1477.43 L1869.62 1485.58 L1864.97 1485.58 L1864.97 1477.43 L1849.36 1477.43 L1849.36 1472.92 L1863.74 1451.02 Z" fill="#000000" fill-rule="nonzero" fill-opacity="1"></path><path clip-path="url(#clip550)" d="M1892.28 1454.1 Q1888.67 1454.1 1886.84 1457.66 Q1885.03 1461.2 1885.03 1468.33 Q1885.03 1475.44 1886.84 1479.01 Q1888.67 1482.55 1892.28 1482.55 Q1895.91 1482.55 1897.72 1479.01 Q1899.55 1475.44 1899.55 1468.33 Q1899.55 1461.2 1897.72 1457.66 Q1895.91 1454.1 1892.28 1454.1 M1892.28 1450.39 Q1898.09 1450.39 1901.15 1455 Q1904.22 1459.58 1904.22 1468.33 Q1904.22 1477.06 1901.15 1481.67 Q1898.09 1486.25 1892.28 1486.25 Q1886.47 1486.25 1883.39 1481.67 Q1880.34 1477.06 1880.34 1468.33 Q1880.34 1459.58 1883.39 1455 Q1886.47 1450.39 1892.28 1450.39 Z" fill="#000000" fill-rule="nonzero" fill-opacity="1"></path><path clip-path="url(#clip550)" d="M1922.44 1454.1 Q1918.83 1454.1 1917 1457.66 Q1915.2 1461.2 1915.2 1468.33 Q1915.2 1475.44 1917 1479.01 Q1918.83 1482.55 1922.44 1482.55 Q1926.08 1482.55 1927.88 1479.01 Q1929.71 1475.44 1929.71 1468.33 Q1929.71 1461.2 1927.88 1457.66 Q1926.08 1454.1 1922.44 1454.1 M1922.44 1450.39 Q1928.25 1450.39 1931.31 1455 Q1934.39 1459.58 1934.39 1468.33 Q1934.39 1477.06 1931.31 1481.67 Q1928.25 1486.25 1922.44 1486.25 Q1916.63 1486.25 1913.55 1481.67 Q1910.5 1477.06 1910.5 1468.33 Q1910.5 1459.58 1913.55 1455 Q1916.63 1450.39 1922.44 1450.39 Z" fill="#000000" fill-rule="nonzero" fill-opacity="1"></path><path clip-path="url(#clip550)" d="M2252.36 1451.02 L2270.72 1451.02 L2270.72 1454.96 L2256.65 1454.96 L2256.65 1463.43 Q2257.66 1463.08 2258.68 1462.92 Q2259.7 1462.73 2260.72 1462.73 Q2266.51 1462.73 2269.89 1465.9 Q2273.27 1469.08 2273.27 1474.49 Q2273.27 1480.07 2269.79 1483.17 Q2266.32 1486.25 2260 1486.25 Q2257.83 1486.25 2255.56 1485.88 Q2253.31 1485.51 2250.91 1484.77 L2250.91 1480.07 Q2252.99 1481.2 2255.21 1481.76 Q2257.43 1482.32 2259.91 1482.32 Q2263.91 1482.32 2266.25 1480.21 Q2268.59 1478.1 2268.59 1474.49 Q2268.59 1470.88 2266.25 1468.77 Q2263.91 1466.67 2259.91 1466.67 Q2258.04 1466.67 2256.16 1467.08 Q2254.31 1467.5 2252.36 1468.38 L2252.36 1451.02 Z" fill="#000000" fill-rule="nonzero" fill-opacity="1"></path><path clip-path="url(#clip550)" d="M2292.48 1454.1 Q2288.87 1454.1 2287.04 1457.66 Q2285.23 1461.2 2285.23 1468.33 Q2285.23 1475.44 2287.04 1479.01 Q2288.87 1482.55 2292.48 1482.55 Q2296.11 1482.55 2297.92 1479.01 Q2299.75 1475.44 2299.75 1468.33 Q2299.75 1461.2 2297.92 1457.66 Q2296.11 1454.1 2292.48 1454.1 M2292.48 1450.39 Q2298.29 1450.39 2301.35 1455 Q2304.42 1459.58 2304.42 1468.33 Q2304.42 1477.06 2301.35 1481.67 Q2298.29 1486.25 2292.48 1486.25 Q2286.67 1486.25 2283.59 1481.67 Q2280.53 1477.06 2280.53 1468.33 Q2280.53 1459.58 2283.59 1455 Q2286.67 1450.39 2292.48 1450.39 Z" fill="#000000" fill-rule="nonzero" fill-opacity="1"></path><path clip-path="url(#clip550)" d="M2322.64 1454.1 Q2319.03 1454.1 2317.2 1457.66 Q2315.4 1461.2 2315.4 1468.33 Q2315.4 1475.44 2317.2 1479.01 Q2319.03 1482.55 2322.64 1482.55 Q2326.28 1482.55 2328.08 1479.01 Q2329.91 1475.44 2329.91 1468.33 Q2329.91 1461.2 2328.08 1457.66 Q2326.28 1454.1 2322.64 1454.1 M2322.64 1450.39 Q2328.45 1450.39 2331.51 1455 Q2334.59 1459.58 2334.59 1468.33 Q2334.59 1477.06 2331.51 1481.67 Q2328.45 1486.25 2322.64 1486.25 Q2316.83 1486.25 2313.75 1481.67 Q2310.7 1477.06 2310.7 1468.33 Q2310.7 1459.58 2313.75 1455 Q2316.83 1450.39 2322.64 1450.39 Z" fill="#000000" fill-rule="nonzero" fill-opacity="1"></path><path clip-path="url(#clip550)" d="M1045.46 1525.81 L1045.46 1562.76 L1053.22 1562.76 Q1063.06 1562.76 1067.61 1558.3 Q1072.19 1553.85 1072.19 1544.24 Q1072.19 1534.69 1067.61 1530.26 Q1063.06 1525.81 1053.22 1525.81 L1045.46 1525.81 M1039.03 1520.52 L1052.24 1520.52 Q1066.05 1520.52 1072.51 1526.28 Q1078.97 1532.01 1078.97 1544.24 Q1078.97 1556.52 1072.48 1562.28 Q1065.99 1568.04 1052.24 1568.04 L1039.03 1568.04 L1039.03 1520.52 Z" fill="#000000" fill-rule="nonzero" fill-opacity="1"></path><path clip-path="url(#clip550)" d="M1105.17 1550.12 Q1098.07 1550.12 1095.33 1551.75 Q1092.59 1553.37 1092.59 1557.29 Q1092.59 1560.4 1094.63 1562.25 Q1096.7 1564.07 1100.23 1564.07 Q1105.1 1564.07 1108.03 1560.63 Q1110.99 1557.16 1110.99 1551.43 L1110.99 1550.12 L1105.17 1550.12 M1116.85 1547.71 L1116.85 1568.04 L1110.99 1568.04 L1110.99 1562.63 Q1108.99 1565.88 1105.99 1567.44 Q1103 1568.97 1098.67 1568.97 Q1093.2 1568.97 1089.95 1565.91 Q1086.74 1562.82 1086.74 1557.67 Q1086.74 1551.65 1090.75 1548.6 Q1094.79 1545.54 1102.78 1545.54 L1110.99 1545.54 L1110.99 1544.97 Q1110.99 1540.93 1108.32 1538.73 Q1105.68 1536.5 1100.87 1536.5 Q1097.81 1536.5 1094.92 1537.23 Q1092.02 1537.97 1089.35 1539.43 L1089.35 1534.02 Q1092.56 1532.78 1095.59 1532.17 Q1098.61 1531.54 1101.47 1531.54 Q1109.21 1531.54 1113.03 1535.55 Q1116.85 1539.56 1116.85 1547.71 Z" fill="#000000" fill-rule="nonzero" fill-opacity="1"></path><path clip-path="url(#clip550)" d="M1143.74 1571.35 Q1141.26 1577.72 1138.9 1579.66 Q1136.55 1581.6 1132.6 1581.6 L1127.92 1581.6 L1127.92 1576.7 L1131.36 1576.7 Q1133.78 1576.7 1135.12 1575.56 Q1136.45 1574.41 1138.08 1570.14 L1139.13 1567.47 L1124.71 1532.4 L1130.92 1532.4 L1142.06 1560.28 L1153.2 1532.4 L1159.4 1532.4 L1143.74 1571.35 Z" fill="#000000" fill-rule="nonzero" fill-opacity="1"></path><path clip-path="url(#clip550)" d="M1190.21 1533.45 L1190.21 1538.98 Q1187.73 1537.71 1185.06 1537.07 Q1182.38 1536.44 1179.52 1536.44 Q1175.16 1536.44 1172.96 1537.77 Q1170.8 1539.11 1170.8 1541.79 Q1170.8 1543.82 1172.36 1545 Q1173.92 1546.15 1178.63 1547.2 L1180.63 1547.64 Q1186.87 1548.98 1189.48 1551.43 Q1192.12 1553.85 1192.12 1558.21 Q1192.12 1563.17 1188.18 1566.07 Q1184.26 1568.97 1177.39 1568.97 Q1174.52 1568.97 1171.4 1568.39 Q1168.31 1567.85 1164.88 1566.74 L1164.88 1560.69 Q1168.12 1562.38 1171.27 1563.24 Q1174.43 1564.07 1177.51 1564.07 Q1181.65 1564.07 1183.88 1562.66 Q1186.11 1561.23 1186.11 1558.65 Q1186.11 1556.27 1184.48 1554.99 Q1182.89 1553.72 1177.45 1552.54 L1175.41 1552.07 Q1169.97 1550.92 1167.55 1548.56 Q1165.13 1546.18 1165.13 1542.04 Q1165.13 1537.01 1168.7 1534.27 Q1172.26 1531.54 1178.82 1531.54 Q1182.06 1531.54 1184.93 1532.01 Q1187.79 1532.49 1190.21 1533.45 Z" fill="#000000" fill-rule="nonzero" fill-opacity="1"></path><path clip-path="url(#clip550)" d="M1240.21 1518.52 L1240.21 1523.39 L1234.61 1523.39 Q1231.46 1523.39 1230.22 1524.66 Q1229.01 1525.93 1229.01 1529.24 L1229.01 1532.4 L1238.66 1532.4 L1238.66 1536.95 L1229.01 1536.95 L1229.01 1568.04 L1223.12 1568.04 L1223.12 1536.95 L1217.52 1536.95 L1217.52 1532.4 L1223.12 1532.4 L1223.12 1529.91 Q1223.12 1523.96 1225.89 1521.26 Q1228.66 1518.52 1234.68 1518.52 L1240.21 1518.52 Z" fill="#000000" fill-rule="nonzero" fill-opacity="1"></path><path clip-path="url(#clip550)" d="M1265.77 1537.87 Q1264.79 1537.3 1263.61 1537.04 Q1262.46 1536.76 1261.06 1536.76 Q1256.1 1536.76 1253.42 1540 Q1250.78 1543.22 1250.78 1549.27 L1250.78 1568.04 L1244.89 1568.04 L1244.89 1532.4 L1250.78 1532.4 L1250.78 1537.93 Q1252.63 1534.69 1255.59 1533.13 Q1258.55 1531.54 1262.78 1531.54 Q1263.39 1531.54 1264.12 1531.63 Q1264.85 1531.7 1265.74 1531.85 L1265.77 1537.87 Z" fill="#000000" fill-rule="nonzero" fill-opacity="1"></path><path clip-path="url(#clip550)" d="M1284.3 1536.5 Q1279.59 1536.5 1276.85 1540.19 Q1274.11 1543.85 1274.11 1550.25 Q1274.11 1556.65 1276.82 1560.34 Q1279.55 1564 1284.3 1564 Q1288.98 1564 1291.71 1560.31 Q1294.45 1556.62 1294.45 1550.25 Q1294.45 1543.92 1291.71 1540.23 Q1288.98 1536.5 1284.3 1536.5 M1284.3 1531.54 Q1291.94 1531.54 1296.3 1536.5 Q1300.66 1541.47 1300.66 1550.25 Q1300.66 1559 1296.3 1564 Q1291.94 1568.97 1284.3 1568.97 Q1276.63 1568.97 1272.27 1564 Q1267.94 1559 1267.94 1550.25 Q1267.94 1541.47 1272.27 1536.5 Q1276.63 1531.54 1284.3 1531.54 Z" fill="#000000" fill-rule="nonzero" fill-opacity="1"></path><path clip-path="url(#clip550)" d="M1338.12 1539.24 Q1340.32 1535.29 1343.37 1533.41 Q1346.43 1531.54 1350.56 1531.54 Q1356.13 1531.54 1359.16 1535.45 Q1362.18 1539.33 1362.18 1546.53 L1362.18 1568.04 L1356.29 1568.04 L1356.29 1546.72 Q1356.29 1541.59 1354.48 1539.11 Q1352.66 1536.63 1348.94 1536.63 Q1344.39 1536.63 1341.75 1539.65 Q1339.11 1542.68 1339.11 1547.9 L1339.11 1568.04 L1333.22 1568.04 L1333.22 1546.72 Q1333.22 1541.56 1331.4 1539.11 Q1329.59 1536.63 1325.8 1536.63 Q1321.31 1536.63 1318.67 1539.68 Q1316.03 1542.71 1316.03 1547.9 L1316.03 1568.04 L1310.14 1568.04 L1310.14 1532.4 L1316.03 1532.4 L1316.03 1537.93 Q1318.04 1534.66 1320.84 1533.1 Q1323.64 1531.54 1327.49 1531.54 Q1331.37 1531.54 1334.08 1533.51 Q1336.81 1535.48 1338.12 1539.24 Z" fill="#000000" fill-rule="nonzero" fill-opacity="1"></path><path clip-path="url(#clip550)" d="M1423.32 1522.08 L1423.32 1528.35 Q1419.66 1526.6 1416.42 1525.74 Q1413.17 1524.88 1410.15 1524.88 Q1404.9 1524.88 1402.03 1526.92 Q1399.2 1528.96 1399.2 1532.71 Q1399.2 1535.87 1401.08 1537.49 Q1402.99 1539.08 1408.27 1540.07 L1412.15 1540.86 Q1419.35 1542.23 1422.75 1545.7 Q1426.19 1549.14 1426.19 1554.93 Q1426.19 1561.84 1421.54 1565.4 Q1416.93 1568.97 1407.98 1568.97 Q1404.61 1568.97 1400.79 1568.2 Q1397 1567.44 1392.93 1565.94 L1392.93 1559.32 Q1396.84 1561.52 1400.6 1562.63 Q1404.35 1563.75 1407.98 1563.75 Q1413.49 1563.75 1416.48 1561.58 Q1419.47 1559.42 1419.47 1555.41 Q1419.47 1551.91 1417.31 1549.93 Q1415.18 1547.96 1410.27 1546.97 L1406.36 1546.21 Q1399.17 1544.78 1395.95 1541.72 Q1392.74 1538.67 1392.74 1533.22 Q1392.74 1526.92 1397.16 1523.29 Q1401.62 1519.66 1409.42 1519.66 Q1412.76 1519.66 1416.23 1520.27 Q1419.7 1520.87 1423.32 1522.08 Z" fill="#000000" fill-rule="nonzero" fill-opacity="1"></path><path clip-path="url(#clip550)" d="M1441.75 1522.27 L1441.75 1532.4 L1453.82 1532.4 L1453.82 1536.95 L1441.75 1536.95 L1441.75 1556.3 Q1441.75 1560.66 1442.93 1561.9 Q1444.14 1563.14 1447.8 1563.14 L1453.82 1563.14 L1453.82 1568.04 L1447.8 1568.04 Q1441.02 1568.04 1438.44 1565.53 Q1435.86 1562.98 1435.86 1556.3 L1435.86 1536.95 L1431.57 1536.95 L1431.57 1532.4 L1435.86 1532.4 L1435.86 1522.27 L1441.75 1522.27 Z" fill="#000000" fill-rule="nonzero" fill-opacity="1"></path><path clip-path="url(#clip550)" d="M1477.72 1550.12 Q1470.62 1550.12 1467.88 1551.75 Q1465.15 1553.37 1465.15 1557.29 Q1465.15 1560.4 1467.18 1562.25 Q1469.25 1564.07 1472.79 1564.07 Q1477.66 1564.07 1480.58 1560.63 Q1483.54 1557.16 1483.54 1551.43 L1483.54 1550.12 L1477.72 1550.12 M1489.4 1547.71 L1489.4 1568.04 L1483.54 1568.04 L1483.54 1562.63 Q1481.54 1565.88 1478.55 1567.44 Q1475.55 1568.97 1471.23 1568.97 Q1465.75 1568.97 1462.51 1565.91 Q1459.29 1562.82 1459.29 1557.67 Q1459.29 1551.65 1463.3 1548.6 Q1467.34 1545.54 1475.33 1545.54 L1483.54 1545.54 L1483.54 1544.97 Q1483.54 1540.93 1480.87 1538.73 Q1478.23 1536.5 1473.42 1536.5 Q1470.37 1536.5 1467.47 1537.23 Q1464.57 1537.97 1461.9 1539.43 L1461.9 1534.02 Q1465.12 1532.78 1468.14 1532.17 Q1471.16 1531.54 1474.03 1531.54 Q1481.76 1531.54 1485.58 1535.55 Q1489.4 1539.56 1489.4 1547.71 Z" fill="#000000" fill-rule="nonzero" fill-opacity="1"></path><path clip-path="url(#clip550)" d="M1522.12 1537.87 Q1521.13 1537.3 1519.96 1537.04 Q1518.81 1536.76 1517.41 1536.76 Q1512.44 1536.76 1509.77 1540 Q1507.13 1543.22 1507.13 1549.27 L1507.13 1568.04 L1501.24 1568.04 L1501.24 1532.4 L1507.13 1532.4 L1507.13 1537.93 Q1508.97 1534.69 1511.93 1533.13 Q1514.89 1531.54 1519.13 1531.54 Q1519.73 1531.54 1520.46 1531.63 Q1521.2 1531.7 1522.09 1531.85 L1522.12 1537.87 Z" fill="#000000" fill-rule="nonzero" fill-opacity="1"></path><path clip-path="url(#clip550)" d="M1534.06 1522.27 L1534.06 1532.4 L1546.12 1532.4 L1546.12 1536.95 L1534.06 1536.95 L1534.06 1556.3 Q1534.06 1560.66 1535.23 1561.9 Q1536.44 1563.14 1540.1 1563.14 L1546.12 1563.14 L1546.12 1568.04 L1540.1 1568.04 Q1533.32 1568.04 1530.75 1565.53 Q1528.17 1562.98 1528.17 1556.3 L1528.17 1536.95 L1523.87 1536.95 L1523.87 1532.4 L1528.17 1532.4 L1528.17 1522.27 L1534.06 1522.27 Z" fill="#000000" fill-rule="nonzero" fill-opacity="1"></path><polyline clip-path="url(#clip550)" style="stroke:#000000; stroke-linecap:round; stroke-linejoin:round; stroke-width:4; stroke-opacity:1; fill:none" points="232.389,1423.18 232.389,123.472 "></polyline>
<polyline clip-path="url(#clip550)" style="stroke:#000000; stroke-linecap:round; stroke-linejoin:round; stroke-width:4; stroke-opacity:1; fill:none" points="232.389,1254.33 251.287,1254.33 "></polyline>
<polyline clip-path="url(#clip550)" style="stroke:#000000; stroke-linecap:round; stroke-linejoin:round; stroke-width:4; stroke-opacity:1; fill:none" points="232.389,1024.85 251.287,1024.85 "></polyline>
<polyline clip-path="url(#clip550)" style="stroke:#000000; stroke-linecap:round; stroke-linejoin:round; stroke-width:4; stroke-opacity:1; fill:none" points="232.389,795.37 251.287,795.37 "></polyline>
<polyline clip-path="url(#clip550)" style="stroke:#000000; stroke-linecap:round; stroke-linejoin:round; stroke-width:4; stroke-opacity:1; fill:none" points="232.389,565.888 251.287,565.888 "></polyline>
<polyline clip-path="url(#clip550)" style="stroke:#000000; stroke-linecap:round; stroke-linejoin:round; stroke-width:4; stroke-opacity:1; fill:none" points="232.389,336.406 251.287,336.406 "></polyline>
<path clip-path="url(#clip550)" d="M149.306 1267.68 L165.626 1267.68 L165.626 1271.61 L143.681 1271.61 L143.681 1267.68 Q146.343 1264.92 150.927 1260.29 Q155.533 1255.64 156.714 1254.3 Q158.959 1251.78 159.839 1250.04 Q160.741 1248.28 160.741 1246.59 Q160.741 1243.84 158.797 1242.1 Q156.876 1240.36 153.774 1240.36 Q151.575 1240.36 149.121 1241.13 Q146.691 1241.89 143.913 1243.44 L143.913 1238.72 Q146.737 1237.59 149.191 1237.01 Q151.644 1236.43 153.681 1236.43 Q159.052 1236.43 162.246 1239.11 Q165.44 1241.8 165.44 1246.29 Q165.44 1248.42 164.63 1250.34 Q163.843 1252.24 161.737 1254.83 Q161.158 1255.5 158.056 1258.72 Q154.954 1261.91 149.306 1267.68 Z" fill="#000000" fill-rule="nonzero" fill-opacity="1"></path><path clip-path="url(#clip550)" d="M175.487 1237.05 L193.843 1237.05 L193.843 1240.99 L179.769 1240.99 L179.769 1249.46 Q180.788 1249.11 181.806 1248.95 Q182.825 1248.77 183.843 1248.77 Q189.63 1248.77 193.01 1251.94 Q196.389 1255.11 196.389 1260.53 Q196.389 1266.1 192.917 1269.21 Q189.445 1272.28 183.126 1272.28 Q180.95 1272.28 178.681 1271.91 Q176.436 1271.54 174.028 1270.8 L174.028 1266.1 Q176.112 1267.24 178.334 1267.79 Q180.556 1268.35 183.033 1268.35 Q187.038 1268.35 189.375 1266.24 Q191.713 1264.14 191.713 1260.53 Q191.713 1256.91 189.375 1254.81 Q187.038 1252.7 183.033 1252.7 Q181.158 1252.7 179.283 1253.12 Q177.431 1253.53 175.487 1254.41 L175.487 1237.05 Z" fill="#000000" fill-rule="nonzero" fill-opacity="1"></path><path clip-path="url(#clip550)" d="M144.329 1007.57 L162.686 1007.57 L162.686 1011.51 L148.612 1011.51 L148.612 1019.98 Q149.63 1019.63 150.649 1019.47 Q151.667 1019.28 152.686 1019.28 Q158.473 1019.28 161.852 1022.46 Q165.232 1025.63 165.232 1031.04 Q165.232 1036.62 161.76 1039.72 Q158.288 1042.8 151.968 1042.8 Q149.792 1042.8 147.524 1042.43 Q145.279 1042.06 142.871 1041.32 L142.871 1036.62 Q144.954 1037.76 147.177 1038.31 Q149.399 1038.87 151.876 1038.87 Q155.88 1038.87 158.218 1036.76 Q160.556 1034.65 160.556 1031.04 Q160.556 1027.43 158.218 1025.33 Q155.88 1023.22 151.876 1023.22 Q150.001 1023.22 148.126 1023.64 Q146.274 1024.05 144.329 1024.93 L144.329 1007.57 Z" fill="#000000" fill-rule="nonzero" fill-opacity="1"></path><path clip-path="url(#clip550)" d="M184.445 1010.65 Q180.834 1010.65 179.005 1014.21 Q177.2 1017.76 177.2 1024.89 Q177.2 1031.99 179.005 1035.56 Q180.834 1039.1 184.445 1039.1 Q188.079 1039.1 189.885 1035.56 Q191.713 1031.99 191.713 1024.89 Q191.713 1017.76 189.885 1014.21 Q188.079 1010.65 184.445 1010.65 M184.445 1006.95 Q190.255 1006.95 193.311 1011.55 Q196.389 1016.14 196.389 1024.89 Q196.389 1033.61 193.311 1038.22 Q190.255 1042.8 184.445 1042.8 Q178.635 1042.8 175.556 1038.22 Q172.501 1033.61 172.501 1024.89 Q172.501 1016.14 175.556 1011.55 Q178.635 1006.95 184.445 1006.95 Z" fill="#000000" fill-rule="nonzero" fill-opacity="1"></path><path clip-path="url(#clip550)" d="M144.098 778.09 L166.32 778.09 L166.32 780.08 L153.774 812.65 L148.89 812.65 L160.695 782.025 L144.098 782.025 L144.098 778.09 Z" fill="#000000" fill-rule="nonzero" fill-opacity="1"></path><path clip-path="url(#clip550)" d="M175.487 778.09 L193.843 778.09 L193.843 782.025 L179.769 782.025 L179.769 790.497 Q180.788 790.15 181.806 789.988 Q182.825 789.803 183.843 789.803 Q189.63 789.803 193.01 792.974 Q196.389 796.145 196.389 801.562 Q196.389 807.14 192.917 810.242 Q189.445 813.321 183.126 813.321 Q180.95 813.321 178.681 812.951 Q176.436 812.58 174.028 811.839 L174.028 807.14 Q176.112 808.275 178.334 808.83 Q180.556 809.386 183.033 809.386 Q187.038 809.386 189.375 807.279 Q191.713 805.173 191.713 801.562 Q191.713 797.951 189.375 795.844 Q187.038 793.738 183.033 793.738 Q181.158 793.738 179.283 794.154 Q177.431 794.571 175.487 795.451 L175.487 778.09 Z" fill="#000000" fill-rule="nonzero" fill-opacity="1"></path><path clip-path="url(#clip550)" d="M114.931 579.233 L122.57 579.233 L122.57 552.867 L114.26 554.534 L114.26 550.275 L122.524 548.608 L127.2 548.608 L127.2 579.233 L134.839 579.233 L134.839 583.168 L114.931 583.168 L114.931 579.233 Z" fill="#000000" fill-rule="nonzero" fill-opacity="1"></path><path clip-path="url(#clip550)" d="M154.283 551.687 Q150.672 551.687 148.843 555.252 Q147.038 558.793 147.038 565.923 Q147.038 573.029 148.843 576.594 Q150.672 580.136 154.283 580.136 Q157.917 580.136 159.723 576.594 Q161.552 573.029 161.552 565.923 Q161.552 558.793 159.723 555.252 Q157.917 551.687 154.283 551.687 M154.283 547.983 Q160.093 547.983 163.149 552.589 Q166.227 557.173 166.227 565.923 Q166.227 574.65 163.149 579.256 Q160.093 583.839 154.283 583.839 Q148.473 583.839 145.394 579.256 Q142.339 574.65 142.339 565.923 Q142.339 557.173 145.394 552.589 Q148.473 547.983 154.283 547.983 Z" fill="#000000" fill-rule="nonzero" fill-opacity="1"></path><path clip-path="url(#clip550)" d="M184.445 551.687 Q180.834 551.687 179.005 555.252 Q177.2 558.793 177.2 565.923 Q177.2 573.029 179.005 576.594 Q180.834 580.136 184.445 580.136 Q188.079 580.136 189.885 576.594 Q191.713 573.029 191.713 565.923 Q191.713 558.793 189.885 555.252 Q188.079 551.687 184.445 551.687 M184.445 547.983 Q190.255 547.983 193.311 552.589 Q196.389 557.173 196.389 565.923 Q196.389 574.65 193.311 579.256 Q190.255 583.839 184.445 583.839 Q178.635 583.839 175.556 579.256 Q172.501 574.65 172.501 565.923 Q172.501 557.173 175.556 552.589 Q178.635 547.983 184.445 547.983 Z" fill="#000000" fill-rule="nonzero" fill-opacity="1"></path><path clip-path="url(#clip550)" d="M115.927 349.751 L123.566 349.751 L123.566 323.386 L115.256 325.052 L115.256 320.793 L123.519 319.126 L128.195 319.126 L128.195 349.751 L135.834 349.751 L135.834 353.686 L115.927 353.686 L115.927 349.751 Z" fill="#000000" fill-rule="nonzero" fill-opacity="1"></path><path clip-path="url(#clip550)" d="M149.306 349.751 L165.626 349.751 L165.626 353.686 L143.681 353.686 L143.681 349.751 Q146.343 346.997 150.927 342.367 Q155.533 337.714 156.714 336.372 Q158.959 333.849 159.839 332.112 Q160.741 330.353 160.741 328.663 Q160.741 325.909 158.797 324.173 Q156.876 322.437 153.774 322.437 Q151.575 322.437 149.121 323.2 Q146.691 323.964 143.913 325.515 L143.913 320.793 Q146.737 319.659 149.191 319.08 Q151.644 318.501 153.681 318.501 Q159.052 318.501 162.246 321.187 Q165.44 323.872 165.44 328.362 Q165.44 330.492 164.63 332.413 Q163.843 334.312 161.737 336.904 Q161.158 337.575 158.056 340.793 Q154.954 343.987 149.306 349.751 Z" fill="#000000" fill-rule="nonzero" fill-opacity="1"></path><path clip-path="url(#clip550)" d="M175.487 319.126 L193.843 319.126 L193.843 323.062 L179.769 323.062 L179.769 331.534 Q180.788 331.187 181.806 331.024 Q182.825 330.839 183.843 330.839 Q189.63 330.839 193.01 334.011 Q196.389 337.182 196.389 342.599 Q196.389 348.177 192.917 351.279 Q189.445 354.358 183.126 354.358 Q180.95 354.358 178.681 353.987 Q176.436 353.617 174.028 352.876 L174.028 348.177 Q176.112 349.311 178.334 349.867 Q180.556 350.423 183.033 350.423 Q187.038 350.423 189.375 348.316 Q191.713 346.21 191.713 342.599 Q191.713 338.987 189.375 336.881 Q187.038 334.774 183.033 334.774 Q181.158 334.774 179.283 335.191 Q177.431 335.608 175.487 336.487 L175.487 319.126 Z" fill="#000000" fill-rule="nonzero" fill-opacity="1"></path><path clip-path="url(#clip550)" d="M20.1444 940.442 L26.9239 940.442 Q23.9002 943.688 22.4043 947.38 Q20.9083 951.041 20.9083 955.178 Q20.9083 963.326 25.9054 967.655 Q30.8707 971.984 40.2919 971.984 Q49.6813 971.984 54.6784 967.655 Q59.6436 963.326 59.6436 955.178 Q59.6436 951.041 58.1477 947.38 Q56.6518 943.688 53.6281 940.442 L60.3439 940.442 Q62.6355 943.816 63.7814 947.603 Q64.9272 951.359 64.9272 955.56 Q64.9272 966.35 58.3387 972.557 Q51.7183 978.763 40.2919 978.763 Q28.8336 978.763 22.2451 972.557 Q15.6248 966.35 15.6248 955.56 Q15.6248 951.295 16.7706 947.539 Q17.8846 943.752 20.1444 940.442 Z" fill="#000000" fill-rule="nonzero" fill-opacity="1"></path><path clip-path="url(#clip550)" d="M14.479 930.766 L14.479 924.909 L64.0042 924.909 L64.0042 930.766 L14.479 930.766 Z" fill="#000000" fill-rule="nonzero" fill-opacity="1"></path><path clip-path="url(#clip550)" d="M32.4621 898.842 Q32.4621 903.552 36.1542 906.29 Q39.8145 909.027 46.212 909.027 Q52.6095 909.027 56.3017 906.322 Q59.9619 903.584 59.9619 898.842 Q59.9619 894.163 56.2698 891.426 Q52.5777 888.689 46.212 888.689 Q39.8781 888.689 36.186 891.426 Q32.4621 894.163 32.4621 898.842 M27.4968 898.842 Q27.4968 891.203 32.4621 886.842 Q37.4273 882.482 46.212 882.482 Q54.9649 882.482 59.9619 886.842 Q64.9272 891.203 64.9272 898.842 Q64.9272 906.512 59.9619 910.873 Q54.9649 915.202 46.212 915.202 Q37.4273 915.202 32.4621 910.873 Q27.4968 906.512 27.4968 898.842 Z" fill="#000000" fill-rule="nonzero" fill-opacity="1"></path><path clip-path="url(#clip550)" d="M29.4065 850.049 L34.9447 850.049 Q33.6716 852.531 33.035 855.205 Q32.3984 857.878 32.3984 860.743 Q32.3984 865.104 33.7352 867.3 Q35.072 869.464 37.7456 869.464 Q39.7826 869.464 40.9603 867.904 Q42.1061 866.345 43.1565 861.634 L43.6021 859.629 Q44.9389 853.391 47.3897 850.781 Q49.8086 848.139 54.1691 848.139 Q59.1344 848.139 62.0308 852.086 Q64.9272 856.001 64.9272 862.876 Q64.9272 865.74 64.3543 868.859 Q63.8132 871.947 62.6992 875.384 L56.6518 875.384 Q58.3387 872.138 59.198 868.987 Q60.0256 865.836 60.0256 862.748 Q60.0256 858.611 58.6251 856.383 Q57.1929 854.155 54.6147 854.155 Q52.2276 854.155 50.9545 855.778 Q49.6813 857.369 48.5037 862.812 L48.0262 864.849 Q46.8804 870.292 44.5251 872.711 Q42.138 875.13 38.0002 875.13 Q32.9713 875.13 30.2341 871.565 Q27.4968 868 27.4968 861.443 Q27.4968 858.197 27.9743 855.332 Q28.4517 852.468 29.4065 850.049 Z" fill="#000000" fill-rule="nonzero" fill-opacity="1"></path><path clip-path="url(#clip550)" d="M28.3562 838.813 L28.3562 832.957 L64.0042 832.957 L64.0042 838.813 L28.3562 838.813 M14.479 838.813 L14.479 832.957 L21.895 832.957 L21.895 838.813 L14.479 838.813 Z" fill="#000000" fill-rule="nonzero" fill-opacity="1"></path><path clip-path="url(#clip550)" d="M42.4881 791.07 L64.0042 791.07 L64.0042 796.927 L42.679 796.927 Q37.6183 796.927 35.1038 798.9 Q32.5894 800.874 32.5894 804.82 Q32.5894 809.563 35.6131 812.3 Q38.6368 815.037 43.8567 815.037 L64.0042 815.037 L64.0042 820.926 L28.3562 820.926 L28.3562 815.037 L33.8944 815.037 Q30.6797 812.937 29.0883 810.104 Q27.4968 807.239 27.4968 803.515 Q27.4968 797.372 31.3163 794.221 Q35.1038 791.07 42.4881 791.07 Z" fill="#000000" fill-rule="nonzero" fill-opacity="1"></path><path clip-path="url(#clip550)" d="M45.7664 755.932 Q39.4007 755.932 35.8996 758.573 Q32.3984 761.183 32.3984 765.926 Q32.3984 770.636 35.8996 773.278 Q39.4007 775.888 45.7664 775.888 Q52.1003 775.888 55.6014 773.278 Q59.1026 770.636 59.1026 765.926 Q59.1026 761.183 55.6014 758.573 Q52.1003 755.932 45.7664 755.932 M59.58 750.075 Q68.683 750.075 73.1071 754.117 Q77.5631 758.16 77.5631 766.499 Q77.5631 769.586 77.0857 772.323 Q76.6401 775.061 75.6852 777.639 L69.9879 777.639 Q71.3884 775.061 72.0568 772.546 Q72.7252 770.032 72.7252 767.422 Q72.7252 761.661 69.7015 758.796 Q66.7096 755.932 60.6303 755.932 L57.7339 755.932 Q60.885 757.746 62.4446 760.579 Q64.0042 763.411 64.0042 767.358 Q64.0042 773.915 59.0071 777.925 Q54.01 781.936 45.7664 781.936 Q37.491 781.936 32.4939 777.925 Q27.4968 773.915 27.4968 767.358 Q27.4968 763.411 29.0564 760.579 Q30.616 757.746 33.7671 755.932 L28.3562 755.932 L28.3562 750.075 L59.58 750.075 Z" fill="#000000" fill-rule="nonzero" fill-opacity="1"></path><path clip-path="url(#clip550)" d="M21.7677 710.608 L39.6235 710.608 L39.6235 702.523 Q39.6235 698.036 37.3 695.585 Q34.9765 693.134 30.6797 693.134 Q26.4147 693.134 24.0912 695.585 Q21.7677 698.036 21.7677 702.523 L21.7677 710.608 M16.4842 717.037 L16.4842 702.523 Q16.4842 694.534 20.1126 690.46 Q23.7092 686.355 30.6797 686.355 Q37.7138 686.355 41.3104 690.46 Q44.907 694.534 44.907 702.523 L44.907 710.608 L64.0042 710.608 L64.0042 717.037 L16.4842 717.037 Z" fill="#000000" fill-rule="nonzero" fill-opacity="1"></path><path clip-path="url(#clip550)" d="M33.8307 658.473 Q33.2578 659.459 33.0032 660.637 Q32.7167 661.783 32.7167 663.183 Q32.7167 668.149 35.9632 670.822 Q39.1779 673.464 45.2253 673.464 L64.0042 673.464 L64.0042 679.352 L28.3562 679.352 L28.3562 673.464 L33.8944 673.464 Q30.6479 671.618 29.0883 668.658 Q27.4968 665.698 27.4968 661.465 Q27.4968 660.86 27.5923 660.128 Q27.656 659.396 27.8151 658.505 L33.8307 658.473 Z" fill="#000000" fill-rule="nonzero" fill-opacity="1"></path><path clip-path="url(#clip550)" d="M28.3562 652.33 L28.3562 646.473 L64.0042 646.473 L64.0042 652.33 L28.3562 652.33 M14.479 652.33 L14.479 646.473 L21.895 646.473 L21.895 652.33 L14.479 652.33 Z" fill="#000000" fill-rule="nonzero" fill-opacity="1"></path><path clip-path="url(#clip550)" d="M29.7248 608.566 L35.1993 608.566 Q33.8307 611.048 33.1623 613.563 Q32.4621 616.045 32.4621 618.592 Q32.4621 624.289 36.0905 627.44 Q39.6872 630.591 46.212 630.591 Q52.7369 630.591 56.3653 627.44 Q59.9619 624.289 59.9619 618.592 Q59.9619 616.045 59.2935 613.563 Q58.5933 611.048 57.2247 608.566 L62.6355 608.566 Q63.7814 611.016 64.3543 613.658 Q64.9272 616.268 64.9272 619.228 Q64.9272 627.281 59.8664 632.023 Q54.8057 636.766 46.212 636.766 Q37.491 636.766 32.4939 631.991 Q27.4968 627.185 27.4968 618.846 Q27.4968 616.141 28.0697 613.563 Q28.6108 610.985 29.7248 608.566 Z" fill="#000000" fill-rule="nonzero" fill-opacity="1"></path><path clip-path="url(#clip550)" d="M44.7161 567.889 L47.5806 567.889 L47.5806 594.816 Q53.6281 594.434 56.8109 591.187 Q59.9619 587.909 59.9619 582.084 Q59.9619 578.71 59.1344 575.559 Q58.3069 572.377 56.6518 569.257 L62.1899 569.257 Q63.5267 572.408 64.227 575.719 Q64.9272 579.029 64.9272 582.434 Q64.9272 590.964 59.9619 595.961 Q54.9967 600.927 46.5303 600.927 Q37.7774 600.927 32.6531 596.216 Q27.4968 591.474 27.4968 583.453 Q27.4968 576.26 32.1438 572.09 Q36.7589 567.889 44.7161 567.889 M42.9973 573.745 Q38.1912 573.809 35.3266 576.451 Q32.4621 579.061 32.4621 583.389 Q32.4621 588.291 35.2312 591.251 Q38.0002 594.179 43.0292 594.625 L42.9973 573.745 Z" fill="#000000" fill-rule="nonzero" fill-opacity="1"></path><path clip-path="url(#clip550)" d="M293.741 12.096 L305.934 12.096 L321.368 53.2532 L336.883 12.096 L349.077 12.096 L349.077 72.576 L341.096 72.576 L341.096 19.4686 L325.5 60.9499 L317.277 60.9499 L301.681 19.4686 L301.681 72.576 L293.741 72.576 L293.741 12.096 Z" fill="#000000" fill-rule="nonzero" fill-opacity="1"></path><path clip-path="url(#clip550)" d="M385.616 49.7694 Q376.582 49.7694 373.098 51.8354 Q369.615 53.9013 369.615 58.8839 Q369.615 62.8538 372.207 65.2034 Q374.84 67.5124 379.337 67.5124 Q385.535 67.5124 389.261 63.1374 Q393.029 58.7219 393.029 51.4303 L393.029 49.7694 L385.616 49.7694 M400.482 46.6907 L400.482 72.576 L393.029 72.576 L393.029 65.6895 Q390.477 69.8214 386.669 71.8063 Q382.861 73.7508 377.352 73.7508 Q370.384 73.7508 366.252 69.8619 Q362.161 65.9325 362.161 59.3701 Q362.161 51.7138 367.265 47.825 Q372.41 43.9361 382.578 43.9361 L393.029 43.9361 L393.029 43.2069 Q393.029 38.0623 389.626 35.2672 Q386.264 32.4315 380.147 32.4315 Q376.258 32.4315 372.572 33.3632 Q368.885 34.295 365.483 36.1584 L365.483 29.2718 Q369.574 27.692 373.422 26.9223 Q377.271 26.1121 380.917 26.1121 Q390.76 26.1121 395.621 31.2163 Q400.482 36.3204 400.482 46.6907 Z" fill="#000000" fill-rule="nonzero" fill-opacity="1"></path><path clip-path="url(#clip550)" d="M442.126 34.1734 Q440.87 33.4443 439.371 33.1202 Q437.913 32.7556 436.13 32.7556 Q429.811 32.7556 426.408 36.8875 Q423.046 40.9789 423.046 48.6757 L423.046 72.576 L415.552 72.576 L415.552 27.2059 L423.046 27.2059 L423.046 34.2544 Q425.396 30.1225 429.163 28.1376 Q432.93 26.1121 438.318 26.1121 Q439.088 26.1121 440.019 26.2337 Q440.951 26.3147 442.085 26.5172 L442.126 34.1734 Z" fill="#000000" fill-rule="nonzero" fill-opacity="1"></path><path clip-path="url(#clip550)" d="M449.66 9.54393 L457.155 9.54393 L457.155 46.7717 L479.394 27.2059 L488.914 27.2059 L464.851 48.4326 L489.926 72.576 L480.204 72.576 L457.155 50.4176 L457.155 72.576 L449.66 72.576 L449.66 9.54393 Z" fill="#000000" fill-rule="nonzero" fill-opacity="1"></path><path clip-path="url(#clip550)" d="M533.838 48.0275 L533.838 51.6733 L499.568 51.6733 Q500.054 59.3701 504.186 63.421 Q508.358 67.4314 515.771 67.4314 Q520.065 67.4314 524.076 66.3781 Q528.126 65.3249 532.096 63.2184 L532.096 70.267 Q528.086 71.9684 523.873 72.8596 Q519.66 73.7508 515.326 73.7508 Q504.469 73.7508 498.109 67.4314 Q491.79 61.1119 491.79 50.3365 Q491.79 39.1965 497.785 32.6746 Q503.821 26.1121 514.029 26.1121 Q523.184 26.1121 528.491 32.0264 Q533.838 37.9003 533.838 48.0275 M526.385 45.84 Q526.304 39.7232 522.941 36.0774 Q519.62 32.4315 514.11 32.4315 Q507.872 32.4315 504.105 35.9558 Q500.378 39.4801 499.811 45.8805 L526.385 45.84 Z" fill="#000000" fill-rule="nonzero" fill-opacity="1"></path><path clip-path="url(#clip550)" d="M553.445 14.324 L553.445 27.2059 L568.798 27.2059 L568.798 32.9987 L553.445 32.9987 L553.445 57.6282 Q553.445 63.1779 554.943 64.7578 Q556.483 66.3376 561.141 66.3376 L568.798 66.3376 L568.798 72.576 L561.141 72.576 Q552.513 72.576 549.232 69.3758 Q545.95 66.1351 545.95 57.6282 L545.95 32.9987 L540.482 32.9987 L540.482 27.2059 L545.95 27.2059 L545.95 14.324 L553.445 14.324 Z" fill="#000000" fill-rule="nonzero" fill-opacity="1"></path><path clip-path="url(#clip550)" d="M613.479 18.8205 L613.479 65.8515 L623.363 65.8515 Q635.881 65.8515 641.673 60.1802 Q647.507 54.509 647.507 42.2752 Q647.507 30.1225 641.673 24.4918 Q635.881 18.8205 623.363 18.8205 L613.479 18.8205 M605.296 12.096 L622.107 12.096 Q639.688 12.096 647.912 19.4281 Q656.135 26.7198 656.135 42.2752 Q656.135 57.9117 647.871 65.2439 Q639.607 72.576 622.107 72.576 L605.296 72.576 L605.296 12.096 Z" fill="#000000" fill-rule="nonzero" fill-opacity="1"></path><path clip-path="url(#clip550)" d="M689.474 49.7694 Q680.44 49.7694 676.957 51.8354 Q673.473 53.9013 673.473 58.8839 Q673.473 62.8538 676.066 65.2034 Q678.699 67.5124 683.195 67.5124 Q689.393 67.5124 693.12 63.1374 Q696.887 58.7219 696.887 51.4303 L696.887 49.7694 L689.474 49.7694 M704.341 46.6907 L704.341 72.576 L696.887 72.576 L696.887 65.6895 Q694.335 69.8214 690.527 71.8063 Q686.719 73.7508 681.21 73.7508 Q674.243 73.7508 670.111 69.8619 Q666.019 65.9325 666.019 59.3701 Q666.019 51.7138 671.123 47.825 Q676.268 43.9361 686.436 43.9361 L696.887 43.9361 L696.887 43.2069 Q696.887 38.0623 693.484 35.2672 Q690.122 32.4315 684.005 32.4315 Q680.116 32.4315 676.43 33.3632 Q672.744 34.295 669.341 36.1584 L669.341 29.2718 Q673.432 27.692 677.281 26.9223 Q681.129 26.1121 684.775 26.1121 Q694.619 26.1121 699.48 31.2163 Q704.341 36.3204 704.341 46.6907 Z" fill="#000000" fill-rule="nonzero" fill-opacity="1"></path><path clip-path="url(#clip550)" d="M727.066 14.324 L727.066 27.2059 L742.419 27.2059 L742.419 32.9987 L727.066 32.9987 L727.066 57.6282 Q727.066 63.1779 728.565 64.7578 Q730.105 66.3376 734.763 66.3376 L742.419 66.3376 L742.419 72.576 L734.763 72.576 Q726.135 72.576 722.853 69.3758 Q719.572 66.1351 719.572 57.6282 L719.572 32.9987 L714.104 32.9987 L714.104 27.2059 L719.572 27.2059 L719.572 14.324 L727.066 14.324 Z" fill="#000000" fill-rule="nonzero" fill-opacity="1"></path><path clip-path="url(#clip550)" d="M772.842 49.7694 Q763.808 49.7694 760.324 51.8354 Q756.841 53.9013 756.841 58.8839 Q756.841 62.8538 759.433 65.2034 Q762.066 67.5124 766.563 67.5124 Q772.761 67.5124 776.487 63.1374 Q780.255 58.7219 780.255 51.4303 L780.255 49.7694 L772.842 49.7694 M787.708 46.6907 L787.708 72.576 L780.255 72.576 L780.255 65.6895 Q777.703 69.8214 773.895 71.8063 Q770.087 73.7508 764.578 73.7508 Q757.61 73.7508 753.478 69.8619 Q749.387 65.9325 749.387 59.3701 Q749.387 51.7138 754.491 47.825 Q759.636 43.9361 769.803 43.9361 L780.255 43.9361 L780.255 43.2069 Q780.255 38.0623 776.852 35.2672 Q773.49 32.4315 767.373 32.4315 Q763.484 32.4315 759.798 33.3632 Q756.111 34.295 752.709 36.1584 L752.709 29.2718 Q756.8 27.692 760.648 26.9223 Q764.497 26.1121 768.143 26.1121 Q777.986 26.1121 782.847 31.2163 Q787.708 36.3204 787.708 46.6907 Z" fill="#000000" fill-rule="nonzero" fill-opacity="1"></path><path clip-path="url(#clip550)" d="M825.098 27.2059 L832.552 27.2059 L841.869 62.6108 L851.146 27.2059 L859.936 27.2059 L869.253 62.6108 L878.53 27.2059 L885.983 27.2059 L874.114 72.576 L865.324 72.576 L855.561 35.3887 L845.758 72.576 L836.967 72.576 L825.098 27.2059 Z" fill="#000000" fill-rule="nonzero" fill-opacity="1"></path><path clip-path="url(#clip550)" d="M897.285 27.2059 L904.739 27.2059 L904.739 72.576 L897.285 72.576 L897.285 27.2059 M897.285 9.54393 L904.739 9.54393 L904.739 18.9825 L897.285 18.9825 L897.285 9.54393 Z" fill="#000000" fill-rule="nonzero" fill-opacity="1"></path><path clip-path="url(#clip550)" d="M927.708 14.324 L927.708 27.2059 L943.061 27.2059 L943.061 32.9987 L927.708 32.9987 L927.708 57.6282 Q927.708 63.1779 929.207 64.7578 Q930.746 66.3376 935.404 66.3376 L943.061 66.3376 L943.061 72.576 L935.404 72.576 Q926.776 72.576 923.495 69.3758 Q920.214 66.1351 920.214 57.6282 L920.214 32.9987 L914.745 32.9987 L914.745 27.2059 L920.214 27.2059 L920.214 14.324 L927.708 14.324 Z" fill="#000000" fill-rule="nonzero" fill-opacity="1"></path><path clip-path="url(#clip550)" d="M990.578 45.1919 L990.578 72.576 L983.124 72.576 L983.124 45.4349 Q983.124 38.994 980.612 35.7938 Q978.101 32.5936 973.078 32.5936 Q967.042 32.5936 963.558 36.4419 Q960.074 40.2903 960.074 46.9338 L960.074 72.576 L952.58 72.576 L952.58 9.54393 L960.074 9.54393 L960.074 34.2544 Q962.748 30.163 966.353 28.1376 Q969.999 26.1121 974.739 26.1121 Q982.557 26.1121 986.567 30.9732 Q990.578 35.7938 990.578 45.1919 Z" fill="#000000" fill-rule="nonzero" fill-opacity="1"></path><path clip-path="url(#clip550)" d="M1060.74 28.5427 L1060.74 35.5912 Q1057.58 33.9709 1054.18 33.1607 Q1050.77 32.3505 1047.13 32.3505 Q1041.58 32.3505 1038.78 34.0519 Q1036.03 35.7533 1036.03 39.156 Q1036.03 41.7486 1038.01 43.2475 Q1040 44.7058 1045.99 46.0426 L1048.55 46.6097 Q1056.49 48.3111 1059.81 51.4303 Q1063.17 54.509 1063.17 60.0587 Q1063.17 66.3781 1058.15 70.0644 Q1053.16 73.7508 1044.41 73.7508 Q1040.77 73.7508 1036.8 73.0216 Q1032.87 72.3329 1028.49 70.9151 L1028.49 63.2184 Q1032.63 65.3654 1036.64 66.4591 Q1040.65 67.5124 1044.58 67.5124 Q1049.84 67.5124 1052.68 65.73 Q1055.51 63.9071 1055.51 60.6258 Q1055.51 57.5877 1053.45 55.9673 Q1051.42 54.3469 1044.5 52.8481 L1041.9 52.2405 Q1034.98 50.7821 1031.9 47.7845 Q1028.82 44.7463 1028.82 39.4801 Q1028.82 33.0797 1033.36 29.5959 Q1037.89 26.1121 1046.24 26.1121 Q1050.37 26.1121 1054.01 26.7198 Q1057.66 27.3274 1060.74 28.5427 Z" fill="#000000" fill-rule="nonzero" fill-opacity="1"></path><path clip-path="url(#clip550)" d="M1113.85 48.0275 L1113.85 51.6733 L1079.58 51.6733 Q1080.06 59.3701 1084.19 63.421 Q1088.37 67.4314 1095.78 67.4314 Q1100.07 67.4314 1104.08 66.3781 Q1108.13 65.3249 1112.1 63.2184 L1112.1 70.267 Q1108.09 71.9684 1103.88 72.8596 Q1099.67 73.7508 1095.33 73.7508 Q1084.48 73.7508 1078.12 67.4314 Q1071.8 61.1119 1071.8 50.3365 Q1071.8 39.1965 1077.79 32.6746 Q1083.83 26.1121 1094.04 26.1121 Q1103.19 26.1121 1108.5 32.0264 Q1113.85 37.9003 1113.85 48.0275 M1106.39 45.84 Q1106.31 39.7232 1102.95 36.0774 Q1099.63 32.4315 1094.12 32.4315 Q1087.88 32.4315 1084.11 35.9558 Q1080.39 39.4801 1079.82 45.8805 L1106.39 45.84 Z" fill="#000000" fill-rule="nonzero" fill-opacity="1"></path><path clip-path="url(#clip550)" d="M1155.94 49.3643 Q1155.94 41.2625 1152.57 36.8065 Q1149.25 32.3505 1143.22 32.3505 Q1137.22 32.3505 1133.86 36.8065 Q1130.54 41.2625 1130.54 49.3643 Q1130.54 57.4256 1133.86 61.8816 Q1137.22 66.3376 1143.22 66.3376 Q1149.25 66.3376 1152.57 61.8816 Q1155.94 57.4256 1155.94 49.3643 M1163.39 66.9452 Q1163.39 78.5308 1158.24 84.1616 Q1153.1 89.8329 1142.49 89.8329 Q1138.56 89.8329 1135.07 89.2252 Q1131.59 88.6581 1128.31 87.4428 L1128.31 80.1917 Q1131.59 81.9741 1134.79 82.8248 Q1137.99 83.6755 1141.31 83.6755 Q1148.64 83.6755 1152.29 79.8271 Q1155.94 76.0193 1155.94 68.282 L1155.94 64.5957 Q1153.63 68.6061 1150.02 70.5911 Q1146.42 72.576 1141.39 72.576 Q1133.05 72.576 1127.94 66.2161 Q1122.84 59.8562 1122.84 49.3643 Q1122.84 38.832 1127.94 32.472 Q1133.05 26.1121 1141.39 26.1121 Q1146.42 26.1121 1150.02 28.0971 Q1153.63 30.082 1155.94 34.0924 L1155.94 27.2059 L1163.39 27.2059 L1163.39 66.9452 Z" fill="#000000" fill-rule="nonzero" fill-opacity="1"></path><path clip-path="url(#clip550)" d="M1214.07 35.9153 Q1216.86 30.8922 1220.75 28.5022 Q1224.64 26.1121 1229.91 26.1121 Q1236.99 26.1121 1240.84 31.0947 Q1244.69 36.0368 1244.69 45.1919 L1244.69 72.576 L1237.2 72.576 L1237.2 45.4349 Q1237.2 38.913 1234.89 35.7533 Q1232.58 32.5936 1227.84 32.5936 Q1222.05 32.5936 1218.68 36.4419 Q1215.32 40.2903 1215.32 46.9338 L1215.32 72.576 L1207.83 72.576 L1207.83 45.4349 Q1207.83 38.8725 1205.52 35.7533 Q1203.21 32.5936 1198.39 32.5936 Q1192.68 32.5936 1189.32 36.4824 Q1185.95 40.3308 1185.95 46.9338 L1185.95 72.576 L1178.46 72.576 L1178.46 27.2059 L1185.95 27.2059 L1185.95 34.2544 Q1188.5 30.082 1192.07 28.0971 Q1195.63 26.1121 1200.54 26.1121 Q1205.48 26.1121 1208.92 28.6237 Q1212.41 31.1352 1214.07 35.9153 Z" fill="#000000" fill-rule="nonzero" fill-opacity="1"></path><path clip-path="url(#clip550)" d="M1298.37 48.0275 L1298.37 51.6733 L1264.09 51.6733 Q1264.58 59.3701 1268.71 63.421 Q1272.89 67.4314 1280.3 67.4314 Q1284.59 67.4314 1288.6 66.3781 Q1292.65 65.3249 1296.62 63.2184 L1296.62 70.267 Q1292.61 71.9684 1288.4 72.8596 Q1284.19 73.7508 1279.85 73.7508 Q1269 73.7508 1262.64 67.4314 Q1256.32 61.1119 1256.32 50.3365 Q1256.32 39.1965 1262.31 32.6746 Q1268.35 26.1121 1278.56 26.1121 Q1287.71 26.1121 1293.02 32.0264 Q1298.37 37.9003 1298.37 48.0275 M1290.91 45.84 Q1290.83 39.7232 1287.47 36.0774 Q1284.15 32.4315 1278.64 32.4315 Q1272.4 32.4315 1268.63 35.9558 Q1264.9 39.4801 1264.34 45.8805 L1290.91 45.84 Z" fill="#000000" fill-rule="nonzero" fill-opacity="1"></path><path clip-path="url(#clip550)" d="M1348.31 45.1919 L1348.31 72.576 L1340.86 72.576 L1340.86 45.4349 Q1340.86 38.994 1338.35 35.7938 Q1335.84 32.5936 1330.81 32.5936 Q1324.78 32.5936 1321.29 36.4419 Q1317.81 40.2903 1317.81 46.9338 L1317.81 72.576 L1310.32 72.576 L1310.32 27.2059 L1317.81 27.2059 L1317.81 34.2544 Q1320.48 30.163 1324.09 28.1376 Q1327.73 26.1121 1332.47 26.1121 Q1340.29 26.1121 1344.3 30.9732 Q1348.31 35.7938 1348.31 45.1919 Z" fill="#000000" fill-rule="nonzero" fill-opacity="1"></path><path clip-path="url(#clip550)" d="M1370.55 14.324 L1370.55 27.2059 L1385.91 27.2059 L1385.91 32.9987 L1370.55 32.9987 L1370.55 57.6282 Q1370.55 63.1779 1372.05 64.7578 Q1373.59 66.3376 1378.25 66.3376 L1385.91 66.3376 L1385.91 72.576 L1378.25 72.576 Q1369.62 72.576 1366.34 69.3758 Q1363.06 66.1351 1363.06 57.6282 L1363.06 32.9987 L1357.59 32.9987 L1357.59 27.2059 L1363.06 27.2059 L1363.06 14.324 L1370.55 14.324 Z" fill="#000000" fill-rule="nonzero" fill-opacity="1"></path><path clip-path="url(#clip550)" d="M1434.52 48.0275 L1434.52 51.6733 L1400.25 51.6733 Q1400.73 59.3701 1404.86 63.421 Q1409.04 67.4314 1416.45 67.4314 Q1420.74 67.4314 1424.75 66.3781 Q1428.8 65.3249 1432.77 63.2184 L1432.77 70.267 Q1428.76 71.9684 1424.55 72.8596 Q1420.34 73.7508 1416 73.7508 Q1405.15 73.7508 1398.79 67.4314 Q1392.47 61.1119 1392.47 50.3365 Q1392.47 39.1965 1398.46 32.6746 Q1404.5 26.1121 1414.71 26.1121 Q1423.86 26.1121 1429.17 32.0264 Q1434.52 37.9003 1434.52 48.0275 M1427.06 45.84 Q1426.98 39.7232 1423.62 36.0774 Q1420.3 32.4315 1414.79 32.4315 Q1408.55 32.4315 1404.78 35.9558 Q1401.06 39.4801 1400.49 45.8805 L1427.06 45.84 Z" fill="#000000" fill-rule="nonzero" fill-opacity="1"></path><path clip-path="url(#clip550)" d="M1476.61 34.0924 L1476.61 9.54393 L1484.06 9.54393 L1484.06 72.576 L1476.61 72.576 L1476.61 65.7705 Q1474.26 69.8214 1470.65 71.8063 Q1467.09 73.7508 1462.06 73.7508 Q1453.84 73.7508 1448.65 67.1883 Q1443.51 60.6258 1443.51 49.9314 Q1443.51 39.2371 1448.65 32.6746 Q1453.84 26.1121 1462.06 26.1121 Q1467.09 26.1121 1470.65 28.0971 Q1474.26 30.0415 1476.61 34.0924 M1451.21 49.9314 Q1451.21 58.1548 1454.57 62.8538 Q1457.97 67.5124 1463.89 67.5124 Q1469.8 67.5124 1473.2 62.8538 Q1476.61 58.1548 1476.61 49.9314 Q1476.61 41.7081 1473.2 37.0496 Q1469.8 32.3505 1463.89 32.3505 Q1457.97 32.3505 1454.57 37.0496 Q1451.21 41.7081 1451.21 49.9314 Z" fill="#000000" fill-rule="nonzero" fill-opacity="1"></path><path clip-path="url(#clip550)" d="M1526.11 12.096 L1534.29 12.096 L1534.29 65.6895 L1563.74 65.6895 L1563.74 72.576 L1526.11 72.576 L1526.11 12.096 Z" fill="#000000" fill-rule="nonzero" fill-opacity="1"></path><path clip-path="url(#clip550)" d="M1572 27.2059 L1579.46 27.2059 L1579.46 72.576 L1572 72.576 L1572 27.2059 M1572 9.54393 L1579.46 9.54393 L1579.46 18.9825 L1572 18.9825 L1572 9.54393 Z" fill="#000000" fill-rule="nonzero" fill-opacity="1"></path><path clip-path="url(#clip550)" d="M1632.77 45.1919 L1632.77 72.576 L1625.31 72.576 L1625.31 45.4349 Q1625.31 38.994 1622.8 35.7938 Q1620.29 32.5936 1615.27 32.5936 Q1609.23 32.5936 1605.75 36.4419 Q1602.26 40.2903 1602.26 46.9338 L1602.26 72.576 L1594.77 72.576 L1594.77 27.2059 L1602.26 27.2059 L1602.26 34.2544 Q1604.94 30.163 1608.54 28.1376 Q1612.19 26.1121 1616.93 26.1121 Q1624.75 26.1121 1628.76 30.9732 Q1632.77 35.7938 1632.77 45.1919 Z" fill="#000000" fill-rule="nonzero" fill-opacity="1"></path><path clip-path="url(#clip550)" d="M1704.35 20.5624 L1704.35 43.1259 L1726.91 43.1259 L1726.91 50.0125 L1704.35 50.0125 L1704.35 72.576 L1697.54 72.576 L1697.54 50.0125 L1674.98 50.0125 L1674.98 43.1259 L1697.54 43.1259 L1697.54 20.5624 L1704.35 20.5624 Z" fill="#000000" fill-rule="nonzero" fill-opacity="1"></path><path clip-path="url(#clip550)" d="M1777.99 65.6895 L1806.55 65.6895 L1806.55 72.576 L1768.15 72.576 L1768.15 65.6895 Q1772.81 60.8689 1780.83 52.7671 Q1788.89 44.6248 1790.96 42.2752 Q1794.88 37.8598 1796.42 34.8216 Q1798 31.7429 1798 28.7857 Q1798 23.9651 1794.6 20.927 Q1791.24 17.8888 1785.81 17.8888 Q1781.96 17.8888 1777.67 19.2256 Q1773.41 20.5624 1768.55 23.2765 L1768.55 15.0127 Q1773.5 13.0277 1777.79 12.015 Q1782.08 11.0023 1785.65 11.0023 Q1795.05 11.0023 1800.64 15.7013 Q1806.23 20.4004 1806.23 28.2591 Q1806.23 31.9859 1804.81 35.3482 Q1803.43 38.6699 1799.75 43.2069 Q1798.73 44.3817 1793.3 50.0125 Q1787.88 55.6027 1777.99 65.6895 Z" fill="#000000" fill-rule="nonzero" fill-opacity="1"></path><path clip-path="url(#clip550)" d="M1860.39 45.1919 L1860.39 72.576 L1852.93 72.576 L1852.93 45.4349 Q1852.93 38.994 1850.42 35.7938 Q1847.91 32.5936 1842.89 32.5936 Q1836.85 32.5936 1833.37 36.4419 Q1829.88 40.2903 1829.88 46.9338 L1829.88 72.576 L1822.39 72.576 L1822.39 27.2059 L1829.88 27.2059 L1829.88 34.2544 Q1832.56 30.163 1836.16 28.1376 Q1839.81 26.1121 1844.55 26.1121 Q1852.37 26.1121 1856.38 30.9732 Q1860.39 35.7938 1860.39 45.1919 Z" fill="#000000" fill-rule="nonzero" fill-opacity="1"></path><path clip-path="url(#clip550)" d="M1905.11 34.0924 L1905.11 9.54393 L1912.56 9.54393 L1912.56 72.576 L1905.11 72.576 L1905.11 65.7705 Q1902.76 69.8214 1899.16 71.8063 Q1895.59 73.7508 1890.57 73.7508 Q1882.34 73.7508 1877.16 67.1883 Q1872.01 60.6258 1872.01 49.9314 Q1872.01 39.2371 1877.16 32.6746 Q1882.34 26.1121 1890.57 26.1121 Q1895.59 26.1121 1899.16 28.0971 Q1902.76 30.0415 1905.11 34.0924 M1879.71 49.9314 Q1879.71 58.1548 1883.07 62.8538 Q1886.48 67.5124 1892.39 67.5124 Q1898.3 67.5124 1901.71 62.8538 Q1905.11 58.1548 1905.11 49.9314 Q1905.11 41.7081 1901.71 37.0496 Q1898.3 32.3505 1892.39 32.3505 Q1886.48 32.3505 1883.07 37.0496 Q1879.71 41.7081 1879.71 49.9314 Z" fill="#000000" fill-rule="nonzero" fill-opacity="1"></path><path clip-path="url(#clip550)" d="M1979.16 17.6457 Q1970.25 17.6457 1964.98 24.2892 Q1959.76 30.9327 1959.76 42.3968 Q1959.76 53.8203 1964.98 60.4638 Q1970.25 67.1073 1979.16 67.1073 Q1988.07 67.1073 1993.26 60.4638 Q1998.48 53.8203 1998.48 42.3968 Q1998.48 30.9327 1993.26 24.2892 Q1988.07 17.6457 1979.16 17.6457 M1979.16 11.0023 Q1991.88 11.0023 1999.5 19.5497 Q2007.11 28.0566 2007.11 42.3968 Q2007.11 56.6965 1999.5 65.2439 Q1991.88 73.7508 1979.16 73.7508 Q1966.4 73.7508 1958.74 65.2439 Q1951.13 56.737 1951.13 42.3968 Q1951.13 28.0566 1958.74 19.5497 Q1966.4 11.0023 1979.16 11.0023 Z" fill="#000000" fill-rule="nonzero" fill-opacity="1"></path><path clip-path="url(#clip550)" d="M2045.88 34.1734 Q2044.62 33.4443 2043.12 33.1202 Q2041.67 32.7556 2039.88 32.7556 Q2033.56 32.7556 2030.16 36.8875 Q2026.8 40.9789 2026.8 48.6757 L2026.8 72.576 L2019.3 72.576 L2019.3 27.2059 L2026.8 27.2059 L2026.8 34.2544 Q2029.15 30.1225 2032.92 28.1376 Q2036.68 26.1121 2042.07 26.1121 Q2042.84 26.1121 2043.77 26.2337 Q2044.7 26.3147 2045.84 26.5172 L2045.88 34.1734 Z" fill="#000000" fill-rule="nonzero" fill-opacity="1"></path><path clip-path="url(#clip550)" d="M2082.09 34.0924 L2082.09 9.54393 L2089.55 9.54393 L2089.55 72.576 L2082.09 72.576 L2082.09 65.7705 Q2079.74 69.8214 2076.14 71.8063 Q2072.57 73.7508 2067.55 73.7508 Q2059.33 73.7508 2054.14 67.1883 Q2049 60.6258 2049 49.9314 Q2049 39.2371 2054.14 32.6746 Q2059.33 26.1121 2067.55 26.1121 Q2072.57 26.1121 2076.14 28.0971 Q2079.74 30.0415 2082.09 34.0924 M2056.69 49.9314 Q2056.69 58.1548 2060.06 62.8538 Q2063.46 67.5124 2069.37 67.5124 Q2075.29 67.5124 2078.69 62.8538 Q2082.09 58.1548 2082.09 49.9314 Q2082.09 41.7081 2078.69 37.0496 Q2075.29 32.3505 2069.37 32.3505 Q2063.46 32.3505 2060.06 37.0496 Q2056.69 41.7081 2056.69 49.9314 Z" fill="#000000" fill-rule="nonzero" fill-opacity="1"></path><path clip-path="url(#clip550)" d="M2143.71 48.0275 L2143.71 51.6733 L2109.44 51.6733 Q2109.92 59.3701 2114.06 63.421 Q2118.23 67.4314 2125.64 67.4314 Q2129.94 67.4314 2133.95 66.3781 Q2138 65.3249 2141.97 63.2184 L2141.97 70.267 Q2137.96 71.9684 2133.74 72.8596 Q2129.53 73.7508 2125.2 73.7508 Q2114.34 73.7508 2107.98 67.4314 Q2101.66 61.1119 2101.66 50.3365 Q2101.66 39.1965 2107.66 32.6746 Q2113.69 26.1121 2123.9 26.1121 Q2133.05 26.1121 2138.36 32.0264 Q2143.71 37.9003 2143.71 48.0275 M2136.25 45.84 Q2136.17 39.7232 2132.81 36.0774 Q2129.49 32.4315 2123.98 32.4315 Q2117.74 32.4315 2113.97 35.9558 Q2110.25 39.4801 2109.68 45.8805 L2136.25 45.84 Z" fill="#000000" fill-rule="nonzero" fill-opacity="1"></path><path clip-path="url(#clip550)" d="M2182.23 34.1734 Q2180.98 33.4443 2179.48 33.1202 Q2178.02 32.7556 2176.24 32.7556 Q2169.92 32.7556 2166.51 36.8875 Q2163.15 40.9789 2163.15 48.6757 L2163.15 72.576 L2155.66 72.576 L2155.66 27.2059 L2163.15 27.2059 L2163.15 34.2544 Q2165.5 30.1225 2169.27 28.1376 Q2173.04 26.1121 2178.42 26.1121 Q2179.19 26.1121 2180.13 26.2337 Q2181.06 26.3147 2182.19 26.5172 L2182.23 34.1734 Z" fill="#000000" fill-rule="nonzero" fill-opacity="1"></path><path clip-path="url(#clip550)" d="M2239.39 9.54393 L2239.39 15.7418 L2232.26 15.7418 Q2228.25 15.7418 2226.67 17.3622 Q2225.13 18.9825 2225.13 23.1955 L2225.13 27.2059 L2237.41 27.2059 L2237.41 32.9987 L2225.13 32.9987 L2225.13 72.576 L2217.64 72.576 L2217.64 32.9987 L2210.51 32.9987 L2210.51 27.2059 L2217.64 27.2059 L2217.64 24.0462 Q2217.64 16.471 2221.16 13.0277 Q2224.69 9.54393 2232.34 9.54393 L2239.39 9.54393 Z" fill="#000000" fill-rule="nonzero" fill-opacity="1"></path><path clip-path="url(#clip550)" d="M2245.63 27.2059 L2253.08 27.2059 L2253.08 72.576 L2245.63 72.576 L2245.63 27.2059 M2245.63 9.54393 L2253.08 9.54393 L2253.08 18.9825 L2245.63 18.9825 L2245.63 9.54393 Z" fill="#000000" fill-rule="nonzero" fill-opacity="1"></path><path clip-path="url(#clip550)" d="M2276.05 14.324 L2276.05 27.2059 L2291.4 27.2059 L2291.4 32.9987 L2276.05 32.9987 L2276.05 57.6282 Q2276.05 63.1779 2277.55 64.7578 Q2279.09 66.3376 2283.75 66.3376 L2291.4 66.3376 L2291.4 72.576 L2283.75 72.576 Q2275.12 72.576 2271.84 69.3758 Q2268.56 66.1351 2268.56 57.6282 L2268.56 32.9987 L2263.09 32.9987 L2263.09 27.2059 L2268.56 27.2059 L2268.56 14.324 L2276.05 14.324 Z" fill="#000000" fill-rule="nonzero" fill-opacity="1"></path><polyline clip-path="url(#clip552)" style="stroke:#009af9; stroke-linecap:round; stroke-linejoin:round; stroke-width:4; stroke-opacity:1; fill:none" points="292.4,456.288 296.408,542.94 300.417,529.171 304.426,611.784 308.435,570.478 312.443,586.541 316.452,632.438 320.461,683.474 324.469,595.721 328.478,561.849 332.487,529.722 336.496,505.672 340.504,441.968 344.513,462.071 348.522,508.518 352.53,453.442 356.539,472.351 360.548,474.095 364.556,551.018 368.565,531.466 372.574,563.593 376.583,576.811 380.591,535.505 384.6,492.454 388.609,436.828 392.617,429.301 396.626,450.046 400.635,441.968 404.644,485.569 408.652,420.764 412.661,391.482 416.67,436.277 420.678,429.301 424.687,462.621 428.696,439.122 432.705,416.725 436.713,426.363 440.722,470.607 444.731,444.263 448.739,431.687 452.748,287.665 456.757,363.944 460.766,308.869 464.774,330.073 468.783,355.866 472.792,363.944 476.8,361.649 480.809,329.522 484.818,370.278 488.826,435.084 492.835,416.725 496.844,367.983 500.853,336.406 504.861,354.765 508.87,245.165 512.879,160.256 516.887,186.693 520.896,210.742 524.905,202.756 528.914,206.795 532.922,235.985 536.931,329.522 540.94,237.179 544.948,260.127 548.957,315.202 552.966,287.022 556.975,334.662 560.983,274.446 564.992,336.406 569.001,387.443 573.009,480.98 577.018,439.122 581.027,456.838 585.035,346.687 589.044,319.149 593.053,372.022 597.062,392.584 601.07,377.713 605.079,306.023 609.088,370.278 613.096,320.343 617.105,345.035 621.114,342.74 625.123,401.763 629.131,427.648 633.14,467.762 637.149,445.456 641.157,472.994 645.166,515.953 649.175,572.222 653.184,540.094 657.192,495.942 661.201,556.709 665.21,513.658 669.218,553.221 673.227,559.004 677.236,620.964 681.244,658.231 685.253,696.142 689.262,678.885 693.271,682.74 697.279,690.91 701.288,680.078 705.297,712.756 709.305,665.758 713.314,634.182 717.323,645.656 721.332,631.244 725.34,597.465 729.349,613.528 733.358,604.9 737.366,646.757 741.375,616.374 745.384,653.642 749.393,635.834 753.401,646.757 757.41,596.914 761.419,554.414 765.427,973.264 769.436,990.429 773.445,1009.34 777.454,987.033 781.462,1008.79 785.471,984.095 789.48,1013.38 793.488,1003 797.497,994.468 801.506,1009.98 805.514,1008.24 809.523,984.095 813.532,959.495 817.541,961.147 821.549,943.339 825.558,965.186 829.567,954.263 833.575,948.572 837.584,958.302 841.593,1000.16 845.602,977.853 849.61,992.173 853.619,1036.88 857.628,1024.3 861.636,1024.3 865.645,1006.49 869.654,1040.36 873.663,1017.42 877.671,1031.18 881.68,1050.09 885.689,1043.21 889.697,1048.9 893.706,1043.76 897.715,1054.68 901.723,1047.8 905.732,1047.25 909.741,1046.06 913.75,1051.84 917.758,1055.23 921.767,1038.62 925.776,1011.63 929.784,1024.85 933.793,1020.26 937.802,1009.34 941.811,985.289 945.819,968.766 949.828,962.34 953.837,950.866 957.845,940.494 961.854,937.648 965.863,924.43 969.872,901.482 973.88,910.661 977.889,947.378 981.898,914.7 985.906,943.339 989.915,947.378 993.924,953.712 997.933,951.417 1001.94,961.882 1005.95,976.844 1009.96,927 1013.97,933.609 1017.98,923.42 1021.98,963.442 1025.99,1004.75 1030,992.724 1034.01,1011.63 1038.02,1034.58 1042.03,992.724 1046.04,1247.45 1050.05,1261.22 1054.05,1279.03 1058.06,1267 1062.07,1281.32 1066.08,1280.13 1070.09,1284.17 1074.1,1292.15 1078.11,1303.72 1082.12,1300.23 1086.12,1281.32 1090.13,1286.46 1094.14,1299.13 1098.15,1299.13 1102.16,1309.96 1106.17,1304.82 1110.18,1296.74 1114.19,1310.51 1118.19,1314 1122.2,1314 1126.21,1313.45 1130.22,1306.56 1134.23,1304.27 1138.24,1295.64 1142.25,1279.03 1146.25,1279.58 1150.26,1287.01 1154.27,1288.2 1158.28,1299.68 1162.29,1298.49 1166.3,1308.86 1170.31,1305.92 1174.32,1297.93 1178.32,1301.33 1182.33,1309.41 1186.34,1314 1190.35,1309.96 1194.36,1311.15 1198.37,1314 1202.38,1306.56 1206.39,1312.25 1210.39,1318.31 1214.4,1322.63 1218.41,1332.36 1222.42,1327.22 1226.43,1330.61 1230.44,1327.77 1234.45,1352.46 1238.46,1352.46 1242.46,1345.57 1246.47,1344.38 1250.48,1342.64 1254.49,1346.13 1258.5,1351.27 1262.51,1354.75 1266.52,1353.01 1270.52,1355.3 1274.53,1351.82 1278.54,1354.75 1282.55,1346.13 1286.56,1348.97 1290.57,1347.87 1294.58,1347.87 1298.59,1347.23 1302.59,1347.23 1306.6,1333.46 1310.61,1327.22 1314.62,1333.46 1318.63,1331.81 1322.64,1326.02 1326.65,1331.81 1330.66,1318.59 1334.66,1326.02 1338.67,1326.67 1342.68,1329.51 1346.69,1312.25 1350.7,1304.82 1354.71,1307.11 1358.72,1295.64 1362.73,1295.64 1366.73,1300.78 1370.74,1304.27 1374.75,1284.72 1378.76,1284.17 1382.77,1285.36 1386.78,1289.95 1390.79,1294.54 1394.79,1298.49 1398.8,1289.95 1402.81,1293.34 1406.82,1293.34 1410.83,1308.31 1414.84,1303.07 1418.85,1308.31 1422.86,1304.82 1426.86,1299.68 1430.87,1309.41 1434.88,1315.74 1438.89,1310.51 1442.9,1311.15 1446.91,1311.15 1450.92,1304.82 1454.93,1305.92 1458.93,1316.29 1462.94,1311.7 1466.95,1307.11 1470.96,1296.74 1474.97,1286.46 1478.98,1288.76 1482.99,1292.79 1487,1297.93 1491,1312.9 1495.01,1304.27 1499.02,1296.19 1503.03,1303.07 1507.04,1303.72 1511.05,1295.09 1515.06,1303.07 1519.06,1299.13 1523.07,1285.36 1527.08,1272.69 1531.09,1283.89 1535.1,1273.88 1539.11,1280.31 1543.12,1277.01 1547.13,1281.23 1551.13,1285.63 1555.14,1298.03 1559.15,1304.82 1563.16,1292.24 1567.17,1294.81 1571.18,1295.27 1575.19,1281.5 1579.2,1283.71 1583.2,1278.02 1587.21,1287.01 1591.22,1296.56 1595.23,1274.62 1599.24,1247.72 1603.25,1253.97 1607.26,1261.22 1611.26,1263.24 1615.27,1256.9 1619.28,1257.18 1623.29,1243.32 1627.3,1249.84 1631.31,1245.8 1635.32,1239.74 1639.33,1254.7 1643.33,1247.45 1647.34,1254.7 1651.35,1258.28 1655.36,1263.7 1659.37,1272.69 1663.38,1274.07 1667.39,1270.03 1671.4,1271.04 1675.4,1262.59 1679.41,1267.64 1683.42,1267.83 1687.43,1267.55 1691.44,1268.1 1695.45,1270.58 1699.46,1270.86 1703.47,1274.89 1707.47,1286.74 1711.48,1302.25 1715.49,1300.69 1719.5,1292.06 1723.51,1294.17 1727.52,1291.6 1731.53,1293.53 1735.53,1284.99 1739.54,1288.11 1743.55,1299.86 1747.56,1297.38 1751.57,1295.91 1755.58,1301.33 1759.59,1296.19 1763.6,1297.2 1767.6,1298.49 1771.61,1284.9 1775.62,1277.37 1779.63,1279.48 1783.64,1263.6 1787.65,1265.81 1791.66,1269.57 1795.67,1267.73 1799.67,1270.4 1803.68,1264.43 1807.69,1264.98 1811.7,1270.95 1815.71,1281.6 1819.72,1275.45 1823.73,1289.76 1827.74,1276.91 1831.74,1260.21 1835.75,1255.71 1839.76,1263.88 1843.77,1253.41 1847.78,1292.98 1851.79,1300.6 1855.8,1300.41 1859.8,1304.45 1863.81,1308.58 1867.82,1314.27 1871.83,1313.17 1875.84,1309.78 1879.85,1310.05 1883.86,1311.34 1887.87,1308.86 1891.87,1301.88 1895.88,1304.82 1899.89,1308.22 1903.9,1307.11 1907.91,1310.33 1911.92,1308.95 1915.93,1309.22 1919.94,1308.58 1923.94,1311.89 1927.95,1314.55 1931.96,1312.62 1935.97,1317.95 1939.98,1317.49 1943.99,1319.32 1948,1316.66 1952.01,1320.33 1956.01,1313.36 1960.02,1310.14 1964.03,1314.92 1968.04,1320.15 1972.05,1320.15 1976.06,1313.54 1980.07,1316.29 1984.07,1313.54 1988.08,1321.16 1992.09,1325.2 1996.1,1324.37 2000.11,1327.86 2004.12,1334.38 2008.13,1327.58 2012.14,1339.88 2016.14,1339.42 2020.15,1332.82 2024.16,1341.17 2028.17,1344.75 2032.18,1341.44 2036.19,1341.44 2040.2,1341.17 2044.21,1345.67 2048.21,1346.31 2052.22,1338.05 2056.23,1335.66 2060.24,1335.11 2064.25,1336.95 2068.26,1329.42 2072.27,1320.97 2076.28,1318.5 2080.28,1318.68 2084.29,1318.5 2088.3,1327.86 2092.31,1318.59 2096.32,1315.83 2100.33,1309.22 2104.34,1317.3 2108.34,1309.87 2112.35,1307.66 2116.36,1312.44 2120.37,1321.98 2124.38,1322.26 2128.39,1322.63 2132.4,1313.17 2136.41,1313.36 2140.41,1308.77 2144.42,1304.18 2148.43,1303.99 2152.44,1312.07 2156.45,1312.07 2160.46,1311.7 2164.47,1306.01 2168.48,1303.81 2172.48,1305.28 2176.49,1309.68 2180.5,1300.23 2184.51,1304.54 2188.52,1303.17 2192.53,1301.7 2196.54,1287.65 2200.55,1291.05 2204.55,1295.36 2208.56,1296.37 2212.57,1288.3 2216.58,1290.59 2220.59,1278.2 2224.6,1265.72 2228.61,1274.71 2232.61,1276.91 2236.62,1276.91 2240.63,1283.89 2244.64,1286.55 2248.65,1291.05 2252.66,1296.65 2256.67,1294.54 2260.68,1290.96 2264.68,1285.36 2268.69,1294.08 2272.7,1291.05 2276.71,1287.75 2280.72,1286.55 2284.73,1281.23 2288.74,1277.92 2292.75,1282.79 "></polyline>
<polyline clip-path="url(#clip552)" style="stroke:#e26f46; stroke-linecap:round; stroke-linejoin:round; stroke-width:4; stroke-opacity:1; fill:none" points="292.4,585.439 296.408,580.637 300.417,575.834 304.426,571.032 308.435,566.23 312.443,561.428 316.452,556.625 320.461,551.823 324.469,547.021 328.478,542.219 332.487,537.416 336.496,532.614 340.504,527.812 344.513,523.01 348.522,518.207 352.53,513.405 356.539,508.603 360.548,503.801 364.556,498.998 368.565,494.196 372.574,489.394 376.583,484.592 380.591,479.789 384.6,474.987 388.609,470.185 392.617,465.383 396.626,460.58 400.635,455.778 404.644,450.976 408.652,446.174 412.661,441.371 416.67,436.569 420.678,431.767 424.687,426.965 428.696,422.162 432.705,417.36 436.713,412.558 440.722,407.756 444.731,402.953 448.739,398.151 452.748,393.349 456.757,388.547 460.766,383.744 464.774,378.942 468.783,374.14 472.792,369.338 476.8,364.535 480.809,359.733 484.818,354.931 488.826,350.129 492.835,210.144 496.844,217.675 500.853,225.206 504.861,232.736 508.87,240.267 512.879,247.798 516.887,255.329 520.896,262.86 524.905,270.39 528.914,277.921 532.922,285.452 536.931,292.983 540.94,300.514 544.948,308.045 548.957,315.575 552.966,323.106 556.975,330.637 560.983,338.168 564.992,345.699 569.001,353.229 573.009,360.76 577.018,368.291 581.027,375.822 585.035,383.353 589.044,390.883 593.053,398.414 597.062,405.945 601.07,413.476 605.079,421.007 609.088,428.537 613.096,436.068 617.105,443.599 621.114,451.13 625.123,458.661 629.131,466.192 633.14,473.722 637.149,481.253 641.157,488.784 645.166,496.315 649.175,503.846 653.184,511.376 657.192,518.907 661.201,526.438 665.21,533.969 669.218,541.5 673.227,549.03 677.236,556.561 681.244,564.092 685.253,571.623 689.262,579.154 693.271,621.962 697.279,632.053 701.288,642.144 705.297,652.235 709.305,662.326 713.314,672.417 717.323,682.508 721.332,692.599 725.34,702.69 729.349,712.781 733.358,722.872 737.366,732.963 741.375,743.055 745.384,753.146 749.393,763.237 753.401,773.328 757.41,783.419 761.419,793.51 765.427,803.601 769.436,813.692 773.445,823.783 777.454,833.874 781.462,843.965 785.471,854.056 789.48,864.147 793.488,874.239 797.497,884.33 801.506,894.421 805.514,904.512 809.523,914.603 813.532,924.694 817.541,934.785 821.549,944.876 825.558,954.967 829.567,965.058 833.575,975.149 837.584,985.24 841.593,995.331 845.602,1005.42 849.61,1015.51 853.619,1025.6 857.628,1035.7 861.636,1045.79 865.645,1055.88 869.654,1065.97 873.663,1076.06 877.671,1086.15 881.68,1096.24 885.689,1106.33 889.697,1116.42 893.706,916.395 897.715,921.994 901.723,927.592 905.732,933.191 909.741,938.789 913.75,944.388 917.758,949.987 921.767,955.585 925.776,961.184 929.784,966.782 933.793,972.381 937.802,977.98 941.811,983.578 945.819,989.177 949.828,994.775 953.837,1000.37 957.845,1005.97 961.854,1011.57 965.863,1017.17 969.872,1022.77 973.88,1028.37 977.889,1033.97 981.898,1039.56 985.906,1045.16 989.915,1050.76 993.924,1056.36 997.933,1061.96 1001.94,1067.56 1005.95,1073.16 1009.96,1078.75 1013.97,1084.35 1017.98,1089.95 1021.98,1095.55 1025.99,1101.15 1030,1106.75 1034.01,1112.35 1038.02,1117.94 1042.03,1123.54 1046.04,1129.14 1050.05,1134.74 1054.05,1140.34 1058.06,1145.94 1062.07,1151.54 1066.08,1157.13 1070.09,1162.73 1074.1,1168.33 1078.11,1173.93 1082.12,1179.53 1086.12,1185.13 1090.13,1190.73 1094.14,1287.67 1098.15,1288.99 1102.16,1290.31 1106.17,1291.63 1110.18,1292.94 1114.19,1294.26 1118.19,1295.58 1122.2,1296.9 1126.21,1298.22 1130.22,1299.53 1134.23,1300.85 1138.24,1302.17 1142.25,1303.49 1146.25,1304.8 1150.26,1306.12 1154.27,1307.44 1158.28,1308.76 1162.29,1310.08 1166.3,1311.39 1170.31,1312.71 1174.32,1314.03 1178.32,1315.35 1182.33,1316.66 1186.34,1317.98 1190.35,1319.3 1194.36,1320.62 1198.37,1321.94 1202.38,1323.25 1206.39,1324.57 1210.39,1325.89 1214.4,1327.21 1218.41,1328.52 1222.42,1329.84 1226.43,1331.16 1230.44,1332.48 1234.45,1333.8 1238.46,1335.11 1242.46,1336.43 1246.47,1337.75 1250.48,1339.07 1254.49,1340.38 1258.5,1341.7 1262.51,1343.02 1266.52,1344.34 1270.52,1345.66 1274.53,1346.97 1278.54,1348.29 1282.55,1349.61 1286.56,1350.93 1290.57,1352.25 1294.58,1326.32 1298.59,1325.63 1302.59,1324.93 1306.6,1324.24 1310.61,1323.54 1314.62,1322.85 1318.63,1322.15 1322.64,1321.46 1326.65,1320.76 1330.66,1320.07 1334.66,1319.37 1338.67,1318.68 1342.68,1317.98 1346.69,1317.29 1350.7,1316.59 1354.71,1315.9 1358.72,1315.2 1362.73,1314.51 1366.73,1313.81 1370.74,1313.12 1374.75,1312.42 1378.76,1311.73 1382.77,1311.03 1386.78,1310.34 1390.79,1309.64 1394.79,1308.95 1398.8,1308.25 1402.81,1307.56 1406.82,1306.86 1410.83,1306.17 1414.84,1305.47 1418.85,1304.78 1422.86,1304.08 1426.86,1303.39 1430.87,1302.69 1434.88,1302 1438.89,1301.3 1442.9,1300.61 1446.91,1299.91 1450.92,1299.22 1454.93,1298.52 1458.93,1297.83 1462.94,1297.13 1466.95,1296.44 1470.96,1295.74 1474.97,1295.05 1478.98,1294.35 1482.99,1293.66 1487,1292.96 1491,1292.27 1495.01,1296.83 1499.02,1295.94 1503.03,1295.05 1507.04,1294.16 1511.05,1293.27 1515.06,1292.37 1519.06,1291.48 1523.07,1290.59 1527.08,1289.7 1531.09,1288.81 1535.1,1287.92 1539.11,1287.03 1543.12,1286.14 1547.13,1285.25 1551.13,1284.36 1555.14,1283.47 1559.15,1282.58 1563.16,1281.69 1567.17,1280.8 1571.18,1279.91 1575.19,1279.02 1579.2,1278.13 1583.2,1277.23 1587.21,1276.34 1591.22,1275.45 1595.23,1274.56 1599.24,1273.67 1603.25,1272.78 1607.26,1271.89 1611.26,1271 1615.27,1270.11 1619.28,1269.22 1623.29,1268.33 1627.3,1267.44 1631.31,1266.55 1635.32,1265.66 1639.33,1264.77 1643.33,1263.88 1647.34,1262.99 1651.35,1262.1 1655.36,1261.2 1659.37,1260.31 1663.38,1259.42 1667.39,1258.53 1671.4,1257.64 1675.4,1256.75 1679.41,1255.86 1683.42,1254.97 1687.43,1254.08 1691.44,1253.19 1695.45,1281.31 1699.46,1281.54 1703.47,1281.77 1707.47,1282 1711.48,1282.23 1715.49,1282.46 1719.5,1282.7 1723.51,1282.93 1727.52,1283.16 1731.53,1283.39 1735.53,1283.62 1739.54,1283.86 1743.55,1284.09 1747.56,1284.32 1751.57,1284.55 1755.58,1284.78 1759.59,1285.02 1763.6,1285.25 1767.6,1285.48 1771.61,1285.71 1775.62,1285.94 1779.63,1286.18 1783.64,1286.41 1787.65,1286.64 1791.66,1286.87 1795.67,1287.1 1799.67,1287.34 1803.68,1287.57 1807.69,1287.8 1811.7,1288.03 1815.71,1288.26 1819.72,1288.49 1823.73,1288.73 1827.74,1288.96 1831.74,1289.19 1835.75,1289.42 1839.76,1289.65 1843.77,1289.89 1847.78,1290.12 1851.79,1290.35 1855.8,1290.58 1859.8,1290.81 1863.81,1291.05 1867.82,1291.28 1871.83,1291.51 1875.84,1291.74 1879.85,1291.97 1883.86,1292.21 1887.87,1292.44 1891.87,1292.67 1895.88,1309.87 1899.89,1310.44 1903.9,1311 1907.91,1311.56 1911.92,1312.12 1915.93,1312.69 1919.94,1313.25 1923.94,1313.81 1927.95,1314.38 1931.96,1314.94 1935.97,1315.5 1939.98,1316.06 1943.99,1316.63 1948,1317.19 1952.01,1317.75 1956.01,1318.31 1960.02,1318.88 1964.03,1319.44 1968.04,1320 1972.05,1320.57 1976.06,1321.13 1980.07,1321.69 1984.07,1322.25 1988.08,1322.82 1992.09,1323.38 1996.1,1323.94 2000.11,1324.5 2004.12,1325.07 2008.13,1325.63 2012.14,1326.19 2016.14,1326.76 2020.15,1327.32 2024.16,1327.88 2028.17,1328.44 2032.18,1329.01 2036.19,1329.57 2040.2,1330.13 2044.21,1330.69 2048.21,1331.26 2052.22,1331.82 2056.23,1332.38 2060.24,1332.95 2064.25,1333.51 2068.26,1334.07 2072.27,1334.63 2076.28,1335.2 2080.28,1335.76 2084.29,1336.32 2088.3,1336.88 2092.31,1337.45 2096.32,1317.67 2100.33,1316.87 2104.34,1316.07 2108.34,1315.27 2112.35,1314.47 2116.36,1313.67 2120.37,1312.87 2124.38,1312.08 2128.39,1311.28 2132.4,1310.48 2136.41,1309.68 2140.41,1308.88 2144.42,1308.08 2148.43,1307.28 2152.44,1306.49 2156.45,1305.69 2160.46,1304.89 2164.47,1304.09 2168.48,1303.29 2172.48,1302.49 2176.49,1301.69 2180.5,1300.9 2184.51,1300.1 2188.52,1299.3 2192.53,1298.5 2196.54,1297.7 2200.55,1296.9 2204.55,1296.11 2208.56,1295.31 2212.57,1294.51 2216.58,1293.71 2220.59,1292.91 2224.6,1292.11 2228.61,1291.31 2232.61,1290.52 2236.62,1289.72 2240.63,1288.92 2244.64,1288.12 2248.65,1287.32 2252.66,1286.52 2256.67,1285.72 2260.68,1284.93 2264.68,1284.13 2268.69,1283.33 2272.7,1282.53 2276.71,1281.73 2280.72,1280.93 2284.73,1280.13 2288.74,1279.34 2292.75,1278.54 "></polyline>
<polyline clip-path="url(#clip552)" style="stroke:#3da44d; stroke-linecap:round; stroke-linejoin:round; stroke-width:4; stroke-opacity:1; fill:none" points="292.4,574.192 296.408,570.767 300.417,567.284 304.426,563.744 308.435,560.147 312.443,556.493 316.452,552.781 320.461,549.011 324.469,545.185 328.478,541.3 332.487,537.359 336.496,533.36 340.504,529.304 344.513,525.19 348.522,521.019 352.53,516.791 356.539,512.505 360.548,508.162 364.556,503.761 368.565,499.303 372.574,494.788 376.583,490.215 380.591,485.585 384.6,480.898 388.609,476.153 392.617,471.35 396.626,466.491 400.635,461.574 404.644,456.599 408.652,451.568 412.661,446.478 416.67,441.332 420.678,436.128 424.687,430.867 428.696,425.548 432.705,420.172 436.713,414.738 440.722,409.248 444.731,403.699 448.739,398.094 452.748,392.431 456.757,386.71 460.766,380.933 464.774,375.097 468.783,369.205 472.792,363.255 476.8,357.248 480.809,351.183 484.818,345.061 488.826,338.882 492.835,299.484 496.844,296.075 500.853,293.122 504.861,290.625 508.87,288.584 512.879,286.998 516.887,285.868 520.896,285.195 524.905,284.977 528.914,285.214 532.922,285.908 536.931,287.057 540.94,288.663 544.948,290.724 548.957,293.24 552.966,296.213 556.975,299.642 560.983,303.526 564.992,307.866 569.001,312.662 573.009,317.914 577.018,323.621 581.027,329.785 585.035,336.404 589.044,343.479 593.053,351.01 597.062,358.996 601.07,367.439 605.079,376.337 609.088,385.691 613.096,395.501 617.105,405.766 621.114,416.488 625.123,427.665 629.131,439.298 633.14,451.387 637.149,463.932 641.157,476.933 645.166,490.389 649.175,504.301 653.184,518.669 657.192,533.493 661.201,548.773 665.21,564.508 669.218,580.7 673.227,597.347 677.236,614.45 681.244,632.008 685.253,650.023 689.262,668.493 693.271,558.671 697.279,576.512 701.288,594.03 705.297,611.225 709.305,628.097 713.314,644.647 717.323,660.873 721.332,676.777 725.34,692.357 729.349,707.615 733.358,722.55 737.366,737.161 741.375,751.45 745.384,765.416 749.393,779.059 753.401,792.38 757.41,805.377 761.419,818.051 765.427,830.403 769.436,842.431 773.445,854.137 777.454,865.519 781.462,876.579 785.471,887.316 789.48,897.73 793.488,907.821 797.497,917.589 801.506,927.035 805.514,936.157 809.523,944.956 813.532,953.433 817.541,961.587 821.549,969.417 825.558,976.925 829.567,984.11 833.575,990.972 837.584,997.511 841.593,1003.73 845.602,1009.62 849.61,1015.19 853.619,1020.44 857.628,1025.36 861.636,1029.96 865.645,1034.24 869.654,1038.2 873.663,1041.83 877.671,1045.14 881.68,1048.13 885.689,1050.79 889.697,1053.13 893.706,1112.07 897.715,1093.7 901.723,1076.34 905.732,1059.98 909.741,1044.61 913.75,1030.24 917.758,1016.87 921.767,1004.5 925.776,993.13 929.784,982.755 933.793,973.379 937.802,965.001 941.811,957.622 945.819,951.241 949.828,945.858 953.837,941.473 957.845,938.087 961.854,935.699 965.863,934.309 969.872,933.918 973.88,934.525 977.889,936.13 981.898,938.734 985.906,942.336 989.915,946.936 993.924,952.535 997.933,959.132 1001.94,966.727 1005.95,975.32 1009.96,984.912 1013.97,995.502 1017.98,1007.09 1021.98,1019.68 1025.99,1033.26 1030,1047.85 1034.01,1063.43 1038.02,1080.01 1042.03,1097.59 1046.04,1116.16 1050.05,1135.74 1054.05,1156.31 1058.06,1177.88 1062.07,1200.45 1066.08,1224.02 1070.09,1248.59 1074.1,1274.15 1078.11,1300.72 1082.12,1328.28 1086.12,1356.84 1090.13,1386.4 1094.14,1301.36 1098.15,1301 1102.16,1300.72 1106.17,1300.5 1110.18,1300.35 1114.19,1300.27 1118.19,1300.26 1122.2,1300.32 1126.21,1300.45 1130.22,1300.65 1134.23,1300.92 1138.24,1301.26 1142.25,1301.67 1146.25,1302.15 1150.26,1302.7 1154.27,1303.32 1158.28,1304.01 1162.29,1304.77 1166.3,1305.6 1170.31,1306.5 1174.32,1307.46 1178.32,1308.5 1182.33,1309.61 1186.34,1310.79 1190.35,1312.04 1194.36,1313.35 1198.37,1314.74 1202.38,1316.2 1206.39,1317.73 1210.39,1319.32 1214.4,1320.99 1218.41,1322.73 1222.42,1324.53 1226.43,1326.41 1230.44,1328.36 1234.45,1330.37 1238.46,1332.46 1242.46,1334.62 1246.47,1336.84 1250.48,1339.14 1254.49,1341.5 1258.5,1343.94 1262.51,1346.44 1266.52,1349.02 1270.52,1351.66 1274.53,1354.38 1278.54,1357.16 1282.55,1360.02 1286.56,1362.94 1290.57,1365.93 1294.58,1344.97 1298.59,1341.99 1302.59,1339.11 1306.6,1336.32 1310.61,1333.63 1314.62,1331.03 1318.63,1328.53 1322.64,1326.12 1326.65,1323.81 1330.66,1321.59 1334.66,1319.47 1338.67,1317.44 1342.68,1315.51 1346.69,1313.67 1350.7,1311.93 1354.71,1310.29 1358.72,1308.73 1362.73,1307.28 1366.73,1305.92 1370.74,1304.65 1374.75,1303.48 1378.76,1302.4 1382.77,1301.42 1386.78,1300.54 1390.79,1299.75 1394.79,1299.05 1398.8,1298.45 1402.81,1297.95 1406.82,1297.54 1410.83,1297.23 1414.84,1297.01 1418.85,1296.88 1422.86,1296.85 1426.86,1296.92 1430.87,1297.08 1434.88,1297.34 1438.89,1297.69 1442.9,1298.14 1446.91,1298.68 1450.92,1299.31 1454.93,1300.05 1458.93,1300.87 1462.94,1301.8 1466.95,1302.81 1470.96,1303.93 1474.97,1305.14 1478.98,1306.44 1482.99,1307.84 1487,1309.33 1491,1310.92 1495.01,1296.2 1499.02,1295.36 1503.03,1294.51 1507.04,1293.67 1511.05,1292.82 1515.06,1291.97 1519.06,1291.12 1523.07,1290.27 1527.08,1289.42 1531.09,1288.57 1535.1,1287.71 1539.11,1286.86 1543.12,1286 1547.13,1285.14 1551.13,1284.28 1555.14,1283.42 1559.15,1282.55 1563.16,1281.69 1567.17,1280.82 1571.18,1279.95 1575.19,1279.08 1579.2,1278.21 1583.2,1277.34 1587.21,1276.46 1591.22,1275.59 1595.23,1274.71 1599.24,1273.83 1603.25,1272.95 1607.26,1272.07 1611.26,1271.19 1615.27,1270.31 1619.28,1269.42 1623.29,1268.53 1627.3,1267.64 1631.31,1266.75 1635.32,1265.86 1639.33,1264.97 1643.33,1264.08 1647.34,1263.18 1651.35,1262.28 1655.36,1261.39 1659.37,1260.49 1663.38,1259.58 1667.39,1258.68 1671.4,1257.78 1675.4,1256.87 1679.41,1255.96 1683.42,1255.05 1687.43,1254.14 1691.44,1253.23 1695.45,1281.65 1699.46,1281.81 1703.47,1281.96 1707.47,1282.12 1711.48,1282.28 1715.49,1282.45 1719.5,1282.62 1723.51,1282.8 1727.52,1282.98 1731.53,1283.16 1735.53,1283.35 1739.54,1283.54 1743.55,1283.74 1747.56,1283.94 1751.57,1284.15 1755.58,1284.36 1759.59,1284.57 1763.6,1284.79 1767.6,1285.01 1771.61,1285.23 1775.62,1285.46 1779.63,1285.7 1783.64,1285.93 1787.65,1286.18 1791.66,1286.42 1795.67,1286.67 1799.67,1286.93 1803.68,1287.19 1807.69,1287.45 1811.7,1287.71 1815.71,1287.99 1819.72,1288.26 1823.73,1288.54 1827.74,1288.82 1831.74,1289.11 1835.75,1289.4 1839.76,1289.7 1843.77,1290 1847.78,1290.3 1851.79,1290.61 1855.8,1290.92 1859.8,1291.24 1863.81,1291.56 1867.82,1291.88 1871.83,1292.21 1875.84,1292.55 1879.85,1292.88 1883.86,1293.22 1887.87,1293.57 1891.87,1293.92 1895.88,1311 1899.89,1311.45 1903.9,1311.9 1907.91,1312.35 1911.92,1312.81 1915.93,1313.28 1919.94,1313.75 1923.94,1314.22 1927.95,1314.7 1931.96,1315.18 1935.97,1315.67 1939.98,1316.16 1943.99,1316.65 1948,1317.15 1952.01,1317.66 1956.01,1318.16 1960.02,1318.68 1964.03,1319.19 1968.04,1319.72 1972.05,1320.24 1976.06,1320.77 1980.07,1321.31 1984.07,1321.84 1988.08,1322.39 1992.09,1322.94 1996.1,1323.49 2000.11,1324.04 2004.12,1324.6 2008.13,1325.17 2012.14,1325.74 2016.14,1326.31 2020.15,1326.89 2024.16,1327.47 2028.17,1328.06 2032.18,1328.65 2036.19,1329.25 2040.2,1329.85 2044.21,1330.45 2048.21,1331.06 2052.22,1331.67 2056.23,1332.29 2060.24,1332.91 2064.25,1333.54 2068.26,1334.17 2072.27,1334.8 2076.28,1335.44 2080.28,1336.09 2084.29,1336.74 2088.3,1337.39 2092.31,1338.05 2096.32,1317.25 2100.33,1316.49 2104.34,1315.74 2108.34,1314.98 2112.35,1314.22 2116.36,1313.46 2120.37,1312.7 2124.38,1311.93 2128.39,1311.16 2132.4,1310.4 2136.41,1309.63 2140.41,1308.86 2144.42,1308.08 2148.43,1307.31 2152.44,1306.53 2156.45,1305.75 2160.46,1304.97 2164.47,1304.19 2168.48,1303.41 2172.48,1302.62 2176.49,1301.84 2180.5,1301.05 2184.51,1300.26 2188.52,1299.47 2192.53,1298.67 2196.54,1297.88 2200.55,1297.08 2204.55,1296.28 2208.56,1295.48 2212.57,1294.68 2216.58,1293.88 2220.59,1293.07 2224.6,1292.27 2228.61,1291.46 2232.61,1290.65 2236.62,1289.83 2240.63,1289.02 2244.64,1288.21 2248.65,1287.39 2252.66,1286.57 2256.67,1285.75 2260.68,1284.93 2264.68,1284.1 2268.69,1283.28 2272.7,1282.45 2276.71,1281.62 2280.72,1280.79 2284.73,1279.96 2288.74,1279.12 2292.75,1278.29 "></polyline>
<path clip-path="url(#clip550)" d="M1928.37 374.156 L2282.08 374.156 L2282.08 166.796 L1928.37 166.796  Z" fill="#ffffff" fill-rule="evenodd" fill-opacity="1"></path>
<polyline clip-path="url(#clip550)" style="stroke:#000000; stroke-linecap:round; stroke-linejoin:round; stroke-width:4; stroke-opacity:1; fill:none" points="1928.37,374.156 2282.08,374.156 2282.08,166.796 1928.37,166.796 1928.37,374.156 "></polyline>
<polyline clip-path="url(#clip550)" style="stroke:#009af9; stroke-linecap:round; stroke-linejoin:round; stroke-width:4; stroke-opacity:1; fill:none" points="1951.93,218.636 2093.29,218.636 "></polyline>
<path clip-path="url(#clip550)" d="M2144.72 204.018 L2144.72 208.948 Q2142.36 206.749 2139.68 205.661 Q2137.01 204.573 2134 204.573 Q2128.08 204.573 2124.93 208.208 Q2121.78 211.819 2121.78 218.67 Q2121.78 225.499 2124.93 229.133 Q2128.08 232.744 2134 232.744 Q2137.01 232.744 2139.68 231.656 Q2142.36 230.569 2144.72 228.369 L2144.72 233.254 Q2142.27 234.92 2139.51 235.754 Q2136.78 236.587 2133.73 236.587 Q2125.88 236.587 2121.37 231.795 Q2116.85 226.981 2116.85 218.67 Q2116.85 210.337 2121.37 205.546 Q2125.88 200.731 2133.73 200.731 Q2136.83 200.731 2139.56 201.564 Q2142.31 202.374 2144.72 204.018 Z" fill="#000000" fill-rule="nonzero" fill-opacity="1"></path><path clip-path="url(#clip550)" d="M2151.76 199.897 L2156.02 199.897 L2156.02 235.916 L2151.76 235.916 L2151.76 199.897 Z" fill="#000000" fill-rule="nonzero" fill-opacity="1"></path><path clip-path="url(#clip550)" d="M2174.98 212.976 Q2171.55 212.976 2169.56 215.661 Q2167.57 218.323 2167.57 222.976 Q2167.57 227.629 2169.54 230.314 Q2171.53 232.976 2174.98 232.976 Q2178.38 232.976 2180.37 230.291 Q2182.36 227.606 2182.36 222.976 Q2182.36 218.37 2180.37 215.684 Q2178.38 212.976 2174.98 212.976 M2174.98 209.365 Q2180.53 209.365 2183.7 212.976 Q2186.87 216.587 2186.87 222.976 Q2186.87 229.342 2183.7 232.976 Q2180.53 236.587 2174.98 236.587 Q2169.4 236.587 2166.23 232.976 Q2163.08 229.342 2163.08 222.976 Q2163.08 216.587 2166.23 212.976 Q2169.4 209.365 2174.98 209.365 Z" fill="#000000" fill-rule="nonzero" fill-opacity="1"></path><path clip-path="url(#clip550)" d="M2210.46 210.754 L2210.46 214.782 Q2208.66 213.856 2206.71 213.393 Q2204.77 212.93 2202.68 212.93 Q2199.51 212.93 2197.92 213.902 Q2196.34 214.874 2196.34 216.819 Q2196.34 218.3 2197.48 219.157 Q2198.61 219.99 2202.04 220.754 L2203.49 221.078 Q2208.03 222.05 2209.93 223.832 Q2211.85 225.592 2211.85 228.763 Q2211.85 232.374 2208.98 234.481 Q2206.13 236.587 2201.13 236.587 Q2199.05 236.587 2196.78 236.17 Q2194.54 235.777 2192.04 234.967 L2192.04 230.569 Q2194.4 231.795 2196.69 232.42 Q2198.98 233.022 2201.23 233.022 Q2204.24 233.022 2205.86 232.004 Q2207.48 230.962 2207.48 229.087 Q2207.48 227.351 2206.3 226.425 Q2205.14 225.499 2201.18 224.643 L2199.7 224.295 Q2195.74 223.462 2193.98 221.749 Q2192.22 220.013 2192.22 217.004 Q2192.22 213.346 2194.81 211.356 Q2197.41 209.365 2202.18 209.365 Q2204.54 209.365 2206.62 209.712 Q2208.7 210.059 2210.46 210.754 Z" fill="#000000" fill-rule="nonzero" fill-opacity="1"></path><path clip-path="url(#clip550)" d="M2240.81 221.888 L2240.81 223.971 L2221.23 223.971 Q2221.5 228.369 2223.86 230.684 Q2226.25 232.976 2230.49 232.976 Q2232.94 232.976 2235.23 232.374 Q2237.55 231.772 2239.81 230.569 L2239.81 234.596 Q2237.52 235.568 2235.11 236.078 Q2232.71 236.587 2230.23 236.587 Q2224.03 236.587 2220.39 232.976 Q2216.78 229.365 2216.78 223.207 Q2216.78 216.842 2220.21 213.115 Q2223.66 209.365 2229.49 209.365 Q2234.72 209.365 2237.75 212.745 Q2240.81 216.101 2240.81 221.888 M2236.55 220.638 Q2236.5 217.143 2234.58 215.059 Q2232.68 212.976 2229.54 212.976 Q2225.97 212.976 2223.82 214.99 Q2221.69 217.004 2221.36 220.661 L2236.55 220.638 Z" fill="#000000" fill-rule="nonzero" fill-opacity="1"></path><polyline clip-path="url(#clip550)" style="stroke:#e26f46; stroke-linecap:round; stroke-linejoin:round; stroke-width:4; stroke-opacity:1; fill:none" points="1951.93,270.476 2093.29,270.476 "></polyline>
<path clip-path="url(#clip550)" d="M2121.53 257.038 L2121.53 270.024 L2127.41 270.024 Q2130.67 270.024 2132.45 268.335 Q2134.24 266.645 2134.24 263.52 Q2134.24 260.418 2132.45 258.728 Q2130.67 257.038 2127.41 257.038 L2121.53 257.038 M2116.85 253.196 L2127.41 253.196 Q2133.22 253.196 2136.18 255.835 Q2139.17 258.45 2139.17 263.52 Q2139.17 268.635 2136.18 271.251 Q2133.22 273.867 2127.41 273.867 L2121.53 273.867 L2121.53 287.756 L2116.85 287.756 L2116.85 253.196 Z" fill="#000000" fill-rule="nonzero" fill-opacity="1"></path><path clip-path="url(#clip550)" d="M2159.44 265.811 Q2158.73 265.395 2157.87 265.21 Q2157.04 265.001 2156.02 265.001 Q2152.41 265.001 2150.46 267.362 Q2148.54 269.7 2148.54 274.098 L2148.54 287.756 L2144.26 287.756 L2144.26 261.83 L2148.54 261.83 L2148.54 265.858 Q2149.88 263.497 2152.04 262.362 Q2154.19 261.205 2157.27 261.205 Q2157.71 261.205 2158.24 261.274 Q2158.77 261.321 2159.42 261.436 L2159.44 265.811 Z" fill="#000000" fill-rule="nonzero" fill-opacity="1"></path><path clip-path="url(#clip550)" d="M2185.05 273.728 L2185.05 275.811 L2165.46 275.811 Q2165.74 280.209 2168.1 282.524 Q2170.49 284.816 2174.72 284.816 Q2177.18 284.816 2179.47 284.214 Q2181.78 283.612 2184.05 282.409 L2184.05 286.436 Q2181.76 287.408 2179.35 287.918 Q2176.94 288.427 2174.47 288.427 Q2168.26 288.427 2164.63 284.816 Q2161.02 281.205 2161.02 275.047 Q2161.02 268.682 2164.44 264.955 Q2167.89 261.205 2173.73 261.205 Q2178.96 261.205 2181.99 264.585 Q2185.05 267.941 2185.05 273.728 M2180.79 272.478 Q2180.74 268.983 2178.82 266.899 Q2176.92 264.816 2173.77 264.816 Q2170.21 264.816 2168.05 266.83 Q2165.93 268.844 2165.6 272.501 L2180.79 272.478 Z" fill="#000000" fill-rule="nonzero" fill-opacity="1"></path><path clip-path="url(#clip550)" d="M2209.1 265.765 L2209.1 251.737 L2213.36 251.737 L2213.36 287.756 L2209.1 287.756 L2209.1 283.867 Q2207.75 286.182 2205.69 287.316 Q2203.66 288.427 2200.79 288.427 Q2196.09 288.427 2193.12 284.677 Q2190.18 280.927 2190.18 274.816 Q2190.18 268.705 2193.12 264.955 Q2196.09 261.205 2200.79 261.205 Q2203.66 261.205 2205.69 262.339 Q2207.75 263.45 2209.1 265.765 M2194.58 274.816 Q2194.58 279.515 2196.5 282.2 Q2198.45 284.862 2201.83 284.862 Q2205.21 284.862 2207.15 282.2 Q2209.1 279.515 2209.1 274.816 Q2209.1 270.117 2207.15 267.455 Q2205.21 264.77 2201.83 264.77 Q2198.45 264.77 2196.5 267.455 Q2194.58 270.117 2194.58 274.816 Z" fill="#000000" fill-rule="nonzero" fill-opacity="1"></path><path clip-path="url(#clip550)" d="M2238.61 283.821 L2246.25 283.821 L2246.25 257.455 L2237.94 259.122 L2237.94 254.862 L2246.2 253.196 L2250.88 253.196 L2250.88 283.821 L2258.52 283.821 L2258.52 287.756 L2238.61 287.756 L2238.61 283.821 Z" fill="#000000" fill-rule="nonzero" fill-opacity="1"></path><polyline clip-path="url(#clip550)" style="stroke:#3da44d; stroke-linecap:round; stroke-linejoin:round; stroke-width:4; stroke-opacity:1; fill:none" points="1951.93,322.316 2093.29,322.316 "></polyline>
<path clip-path="url(#clip550)" d="M2121.53 308.878 L2121.53 321.864 L2127.41 321.864 Q2130.67 321.864 2132.45 320.175 Q2134.24 318.485 2134.24 315.36 Q2134.24 312.258 2132.45 310.568 Q2130.67 308.878 2127.41 308.878 L2121.53 308.878 M2116.85 305.036 L2127.41 305.036 Q2133.22 305.036 2136.18 307.675 Q2139.17 310.29 2139.17 315.36 Q2139.17 320.475 2136.18 323.091 Q2133.22 325.707 2127.41 325.707 L2121.53 325.707 L2121.53 339.596 L2116.85 339.596 L2116.85 305.036 Z" fill="#000000" fill-rule="nonzero" fill-opacity="1"></path><path clip-path="url(#clip550)" d="M2159.44 317.651 Q2158.73 317.235 2157.87 317.05 Q2157.04 316.841 2156.02 316.841 Q2152.41 316.841 2150.46 319.202 Q2148.54 321.54 2148.54 325.938 L2148.54 339.596 L2144.26 339.596 L2144.26 313.67 L2148.54 313.67 L2148.54 317.698 Q2149.88 315.337 2152.04 314.202 Q2154.19 313.045 2157.27 313.045 Q2157.71 313.045 2158.24 313.114 Q2158.77 313.161 2159.42 313.276 L2159.44 317.651 Z" fill="#000000" fill-rule="nonzero" fill-opacity="1"></path><path clip-path="url(#clip550)" d="M2185.05 325.568 L2185.05 327.651 L2165.46 327.651 Q2165.74 332.049 2168.1 334.364 Q2170.49 336.656 2174.72 336.656 Q2177.18 336.656 2179.47 336.054 Q2181.78 335.452 2184.05 334.249 L2184.05 338.276 Q2181.76 339.248 2179.35 339.758 Q2176.94 340.267 2174.47 340.267 Q2168.26 340.267 2164.63 336.656 Q2161.02 333.045 2161.02 326.887 Q2161.02 320.522 2164.44 316.795 Q2167.89 313.045 2173.73 313.045 Q2178.96 313.045 2181.99 316.425 Q2185.05 319.781 2185.05 325.568 M2180.79 324.318 Q2180.74 320.823 2178.82 318.739 Q2176.92 316.656 2173.77 316.656 Q2170.21 316.656 2168.05 318.67 Q2165.93 320.684 2165.6 324.341 L2180.79 324.318 Z" fill="#000000" fill-rule="nonzero" fill-opacity="1"></path><path clip-path="url(#clip550)" d="M2209.1 317.605 L2209.1 303.577 L2213.36 303.577 L2213.36 339.596 L2209.1 339.596 L2209.1 335.707 Q2207.75 338.022 2205.69 339.156 Q2203.66 340.267 2200.79 340.267 Q2196.09 340.267 2193.12 336.517 Q2190.18 332.767 2190.18 326.656 Q2190.18 320.545 2193.12 316.795 Q2196.09 313.045 2200.79 313.045 Q2203.66 313.045 2205.69 314.179 Q2207.75 315.29 2209.1 317.605 M2194.58 326.656 Q2194.58 331.355 2196.5 334.04 Q2198.45 336.702 2201.83 336.702 Q2205.21 336.702 2207.15 334.04 Q2209.1 331.355 2209.1 326.656 Q2209.1 321.957 2207.15 319.295 Q2205.21 316.61 2201.83 316.61 Q2198.45 316.61 2196.5 319.295 Q2194.58 321.957 2194.58 326.656 Z" fill="#000000" fill-rule="nonzero" fill-opacity="1"></path><path clip-path="url(#clip550)" d="M2226.76 335.661 L2243.08 335.661 L2243.08 339.596 L2221.13 339.596 L2221.13 335.661 Q2223.8 332.906 2228.38 328.276 Q2232.99 323.624 2234.17 322.281 Q2236.41 319.758 2237.29 318.022 Q2238.19 316.263 2238.19 314.573 Q2238.19 311.818 2236.25 310.082 Q2234.33 308.346 2231.23 308.346 Q2229.03 308.346 2226.57 309.11 Q2224.14 309.874 2221.36 311.425 L2221.36 306.702 Q2224.19 305.568 2226.64 304.989 Q2229.1 304.411 2231.13 304.411 Q2236.5 304.411 2239.7 307.096 Q2242.89 309.781 2242.89 314.272 Q2242.89 316.401 2242.08 318.323 Q2241.3 320.221 2239.19 322.813 Q2238.61 323.485 2235.51 326.702 Q2232.41 329.897 2226.76 335.661 Z" fill="#000000" fill-rule="nonzero" fill-opacity="1"></path></svg>